<svg width="66" height="87" viewBox="0 0 66 87" fill="none" xmlns="http://www.w3.org/2000/svg">
<path d="M19.15 44.66C7.86998 44.66 2.41998 65.27 2.41998 70.85C2.41998 76.43 2.41998 84.2 2.41998 84.2H25.23H39.93H62.74C62.74 84.2 62.74 74.74 62.74 69.16C62.74 63.58 57.29 44.66 47.54 44.66H34.35H19.15Z" fill="white" stroke="#002F87" stroke-width="4.8431" stroke-miterlimit="10"/>
<path d="M8.30999 13.4701V22.6701C8.30999 22.6701 5.75998 26.2101 7.03998 27.6201C8.30998 29.0301 9.15998 28.4701 9.15998 28.4701C9.15998 28.4701 9.15998 33.0001 9.15998 34.2701C9.15998 36.9701 11.17 39.1601 14.96 39.6501C19.35 40.2201 22.8 40.5001 22.8 40.5001V47.1501C22.8 47.1501 21 55.7601 31.48 55.7601C41.96 55.7601 43.55 46.7901 43.55 46.7901V13.4701H8.30999Z" fill="#F7BBBB"/>
<path d="M2.22998 8.94004C2.22998 8.94004 2.93998 16.01 10.01 16.01C17.08 16.01 22.74 15.16 23.03 18.84C23.31 22.52 23.03 24.5 23.03 24.5C23.03 24.5 24.93 22.93 25.93 22.08C26.92 21.24 29.4 22.23 27.99 24.21C26.58 26.19 25.16 27.89 25.16 27.89C25.16 27.89 25.58 30.86 26.29 32.7C27 34.54 27.56 35.81 32.23 37.51C36.9 39.21 42.84 41.9 43.97 35.1C45.1 28.31 45.81 19.54 45.95 16.42C46.09 13.3 46.52 9.06004 38.31 3.83004C30.1 -1.39996 23.88 -0.679957 18.08 2.43004C12.28 5.54004 5.76998 9.50004 2.22998 8.94004Z" fill="#002F87"/>
<path d="M41.11 84.7C41.11 84.7 47.53 70.85 50.57 66.79L44.49 61.72L51.59 59.69L49.9 46.17" fill="white"/>
<path d="M41.11 84.7C41.11 84.7 47.53 70.85 50.57 66.79L44.49 61.72L51.59 59.69L49.9 46.17" stroke="#002F87" stroke-width="4.8431" stroke-miterlimit="10"/>
<path d="M10.02 83.69L6.72998 65.47L11.57 62.65L6.41998 55.87" fill="white"/>
<path d="M10.02 83.69L6.72998 65.47L11.57 62.65L6.41998 55.87" stroke="#002F87" stroke-width="4.8431" stroke-miterlimit="10"/>
<path d="M22.81 47.0301C22.81 47.0301 21.62 54.6401 28.55 55.2001C35.48 55.7601 37.41 54.4401 37.41 54.4401C37.41 54.4401 32.83 73.7901 31.73 83.3601L17.31 83.5001C17.31 83.5001 15.01 60.6701 21.46 46.9301C21.84 46.1001 22.81 47.0301 22.81 47.0301Z" fill="#00A0DF"/>
<path d="M16.11 84.02C16.11 84.02 13.41 66.45 20.5 45.5L16.11 84.02Z" fill="white"/>
<path d="M16.11 84.02C16.11 84.02 13.41 66.45 20.5 45.5" stroke="#002F87" stroke-width="4.8431" stroke-miterlimit="10"/>
<path d="M29.96 84.02C31.31 62.06 40.43 49.22 40.43 49.22C42.46 45.17 45.65 44.66 47.53 44.66" fill="white"/>
<path d="M29.96 84.02C31.31 62.06 40.43 49.22 40.43 49.22C42.46 45.17 45.65 44.66 47.53 44.66" stroke="#002F87" stroke-width="4.8431" stroke-miterlimit="10"/>
<path d="M23.2299 24.3601H18.7V22.0701H25.93L23.2299 24.3601Z" fill="#00A0DF"/>
<path d="M15.91 26.9201H13.67C12.18 26.9201 10.76 26.1101 10.14 24.7601C9.72 23.8601 9.07 23.4101 8.59 23.1901C8.2 23.0101 7.94 22.6201 7.94 22.1801V18.5601H18C19.05 18.5601 19.89 19.4101 19.89 20.4501V22.9301C19.89 25.1401 18.11 26.9201 15.91 26.9201Z" fill="white" stroke="#002F87" stroke-width="3.0269" stroke-miterlimit="10"/>
</svg>
