<svg width="529" height="298" viewBox="0 0 529 298" fill="none" xmlns="http://www.w3.org/2000/svg">
<path d="M182.99 71.8199H181.362C181.362 35.0468 144.076 29.0467 143.703 28.9863L143.944 27.3686C144.33 27.441 182.99 33.6584 182.99 71.8199Z" fill="white"/>
<path d="M175.164 71.7354H173.536C173.536 56.4756 168.338 44.6566 158.077 36.58C150.407 30.5437 142.617 28.9984 142.533 28.9863L142.834 27.3807C143.16 27.441 175.164 33.9965 175.164 71.7354Z" fill="white"/>
<path d="M167.326 71.6509H165.698C165.698 35.6142 141.592 29.0346 141.339 28.9743L141.737 27.3928C142.002 27.4652 167.326 34.3586 167.326 71.6509Z" fill="white"/>
<path d="M159.487 71.5664H157.86C157.86 52.9263 153.024 42.3265 148.96 36.7128C144.583 30.6644 140.157 28.9622 140.109 28.9501L140.676 27.4169C141.448 27.7066 159.487 34.7329 159.487 71.5664Z" fill="white"/>
<path d="M151.661 71.4819H150.033C150.033 53.0591 146.983 42.4473 144.414 36.7852C141.653 30.6886 138.867 28.9018 138.843 28.8777L139.687 27.4893C140.169 27.7791 151.661 35.1554 151.661 71.4819Z" fill="white"/>
<path d="M143.823 71.3974H142.195C142.195 36.1695 137.493 28.7087 137.444 28.6362L138.795 27.7308C139 28.0447 143.823 35.6866 143.823 71.3974Z" fill="white"/>
<path d="M366.57 167.616V90.5565C366.57 77.494 377.146 66.9063 390.193 66.9063C403.241 66.9063 413.816 77.494 413.816 90.5565V146.815" stroke="url(#paint0_linear)" stroke-width="2.0262" stroke-miterlimit="10"/>
<path d="M515.265 218.707H0V298H515.265V218.707Z" fill="#0051C6"/>
<path opacity="0.26" d="M391.037 298H372.226V257.086C372.226 251.883 376.434 247.669 381.631 247.669C386.829 247.669 391.037 251.883 391.037 257.086V298Z" fill="#00CEF1"/>
<path d="M0 199.15H529L520.318 178.88H0V199.15Z" fill="white"/>
<path d="M529 199.15H0V219.432H529V199.15Z" fill="#0051C6"/>
<path d="M159.717 162.63H102.245H95.842H78.8876L64.9478 178.88H95.842H102.245H173.656L159.717 162.63Z" fill="#002F87"/>
<path opacity="0.58" d="M153.434 165.443H116.945L120.876 174.944H161.586L153.434 165.443Z" fill="url(#paint1_linear)"/>
<path d="M460.857 162.425C456.66 162.425 453.224 158.984 453.224 154.771L453.248 106.625H460.893C465.089 106.625 468.538 106.625 468.538 106.625L468.514 154.771C468.502 158.984 465.053 162.425 460.857 162.425Z" fill="#73E2FF"/>
<path d="M437.861 162.413C433.664 162.413 430.228 158.972 430.228 154.759L430.252 106.613H437.897C442.093 106.613 445.542 106.613 445.542 106.613L445.518 154.759C445.506 158.972 442.057 162.413 437.861 162.413Z" fill="#73E2FF"/>
<path d="M415.154 162.401C410.958 162.401 407.521 158.96 407.521 154.747L407.545 106.601H415.191C419.387 106.601 422.836 106.601 422.836 106.601L422.812 154.747C422.8 158.96 419.363 162.401 415.154 162.401Z" fill="#73E2FF"/>
<path d="M404.342 178.878L404.369 124.539L398.569 124.537L398.542 178.875L404.342 178.878Z" fill="#E5E5E5"/>
<path d="M477.439 178.913L477.466 124.574L471.666 124.571L471.639 178.91L477.439 178.913Z" fill="#E5E5E5"/>
<path d="M89.7885 72.4114C89.7885 99.0918 111.386 120.714 138.035 120.714C164.685 120.714 186.282 99.0918 186.282 72.4114C186.282 57.8639 179.854 44.8134 169.689 35.9521H106.381C96.2158 44.8134 89.7885 57.8639 89.7885 72.4114Z" fill="url(#paint2_linear)"/>
<path d="M106.381 35.9522H169.689C161.212 28.5758 150.154 24.1089 138.035 24.1089C125.916 24.1089 114.858 28.5758 106.381 35.9522Z" fill="white"/>
<path opacity="0.36" d="M204.406 199.15H171.233V298H204.406V199.15Z" fill="#00CEF1"/>
<path opacity="0.26" d="M159.801 298H140.989V257.086C140.989 251.883 145.198 247.669 150.395 247.669C155.592 247.669 159.801 251.883 159.801 257.086V298Z" fill="#00CEF1"/>
<path opacity="0.26" d="M44.1949 298H25.3834V257.086C25.3834 251.883 29.5919 247.669 34.7892 247.669C39.9864 247.669 44.1949 251.883 44.1949 257.086V298Z" fill="#00CEF1"/>
<path opacity="0.26" d="M276.239 298H257.428V257.086C257.428 251.883 261.636 247.669 266.833 247.669C272.031 247.669 276.239 251.883 276.239 257.086V298Z" fill="#00CEF1"/>
<path d="M393.485 298H374.674V257.086C374.674 251.883 378.882 247.669 384.079 247.669C389.277 247.669 393.485 251.883 393.485 257.086V298Z" fill="white"/>
<path d="M162.249 298H143.437V257.086C143.437 251.883 147.646 247.669 152.843 247.669C158.04 247.669 162.249 251.883 162.249 257.086V298Z" fill="white"/>
<path d="M46.6307 298H27.8192V257.086C27.8192 251.883 32.0277 247.669 37.225 247.669C42.4222 247.669 46.6307 251.883 46.6307 257.086V298Z" fill="white"/>
<path d="M277.047 298H258.236V257.086C258.236 251.883 262.444 247.669 267.641 247.669C272.839 247.669 277.047 251.883 277.047 257.086V298Z" fill="white"/>
<path opacity="0.36" d="M345.938 199.15H290.107V298H345.938V199.15Z" fill="#00CEF1"/>
<path opacity="0.63" d="M515.265 218.707H0V238.989H515.265V218.707Z" fill="#002F87"/>
<path d="M78.8875 162.642H159.717L184.545 110.537H55.0476L78.8875 162.642Z" fill="url(#paint3_linear)"/>
<path d="M86.8221 72.8702H189.236" stroke="#00FFE0" stroke-width="2.0262" stroke-miterlimit="10"/>
<path d="M93.9126 66.5562V71.7836" stroke="#00FFE0" stroke-width="2.4267" stroke-miterlimit="10"/>
<path d="M98.929 66.5562V71.7836" stroke="#00FFE0" stroke-width="2.4267" stroke-miterlimit="10"/>
<path d="M103.933 66.5562V71.7836" stroke="#00FFE0" stroke-width="2.4267" stroke-miterlimit="10"/>
<path d="M108.938 66.5562V71.7836" stroke="#00FFE0" stroke-width="2.4267" stroke-miterlimit="10"/>
<path d="M113.942 66.5562V71.7836" stroke="#00FFE0" stroke-width="2.4267" stroke-miterlimit="10"/>
<path d="M118.946 66.5562V71.7836" stroke="#00FFE0" stroke-width="2.4267" stroke-miterlimit="10"/>
<path d="M123.963 66.5562V71.7836" stroke="#00FFE0" stroke-width="2.4267" stroke-miterlimit="10"/>
<path d="M128.967 66.5562V71.7836" stroke="#00FFE0" stroke-width="2.4267" stroke-miterlimit="10"/>
<path d="M133.971 66.5562V71.7836" stroke="#00FFE0" stroke-width="2.4267" stroke-miterlimit="10"/>
<path d="M370.007 139.547L370.019 119.386H362.265H354.512L354.5 139.547L337.292 169.97C335.049 173.93 337.907 178.843 342.453 178.843L362.229 178.856L382.005 178.868C386.551 178.868 389.421 173.966 387.178 169.994L370.007 139.547Z" fill="#73E2FF"/>
<path d="M105.139 48.9785L81.5163 25.3283" stroke="white" stroke-width="2.0262" stroke-miterlimit="10"/>
<path d="M80.2984 36.749C87.2712 36.749 92.9238 31.0899 92.9238 24.109C92.9238 17.1281 87.2712 11.469 80.2984 11.469C73.3256 11.469 67.673 17.1281 67.673 24.109C67.673 31.0899 73.3256 36.749 80.2984 36.749Z" fill="white"/>
<path d="M138.12 3.74251C139.152 3.74251 139.989 2.90472 139.989 1.87125C139.989 0.837788 139.152 0 138.12 0C137.087 0 136.25 0.837788 136.25 1.87125C136.25 2.90472 137.087 3.74251 138.12 3.74251Z" fill="white"/>
<path d="M80.2984 40.8054C89.5089 40.8054 96.9755 33.3302 96.9755 24.109C96.9755 14.8878 89.5089 7.4126 80.2984 7.4126C71.0879 7.4126 63.6213 14.8878 63.6213 24.109C63.6213 33.3302 71.0879 40.8054 80.2984 40.8054Z" stroke="#00FFE0" stroke-width="2.4267" stroke-miterlimit="10"/>
<path d="M80.2984 24.1089L56.6756 47.7592" stroke="white" stroke-width="2.0262" stroke-miterlimit="10"/>
<path d="M55.4576 61.6185C62.4304 61.6185 68.083 55.9594 68.083 48.9785C68.083 41.9976 62.4304 36.3385 55.4576 36.3385C48.4848 36.3385 42.8322 41.9976 42.8322 48.9785C42.8322 55.9594 48.4848 61.6185 55.4576 61.6185Z" fill="url(#paint4_radial)"/>
<path d="M287.152 148.855H277.385V171.684H287.152V148.855Z" fill="#E5E5E5"/>
<path d="M302.633 178.872V171.689H261.911V178.872H302.633Z" fill="#E5E5E5"/>
<path d="M315.671 140.839H248.89V143.181H315.671V140.839Z" fill="#E5E5E5"/>
<path d="M253.003 143.196L252.954 178.87L255.294 178.874L255.343 143.199L253.003 143.196Z" fill="#E5E5E5"/>
<path d="M309.199 143.199L309.15 178.873L311.49 178.877L311.539 143.202L309.199 143.199Z" fill="#E5E5E5"/>
<path d="M307.604 128.477H256.957V140.972C256.957 145.33 260.49 148.855 264.832 148.855H299.729C304.082 148.855 307.604 145.318 307.604 140.972V128.477Z" fill="url(#paint5_linear)"/>
<path d="M282.28 140.815C300.721 140.815 315.671 125.848 315.671 107.386C315.671 88.9234 300.721 73.9567 282.28 73.9567C263.839 73.9567 248.89 88.9234 248.89 107.386C248.89 125.848 263.839 140.815 282.28 140.815Z" fill="#73E2FF"/>
<path d="M292.446 51.8276H272.091V82.818H292.446V51.8276Z" fill="#73E2FF"/>
<path d="M287.972 120.328V51.8276C287.972 32.0165 304.01 15.9479 323.81 15.9479C343.599 15.9479 359.649 32.0044 359.649 51.8276V161.085" stroke="url(#paint6_linear)" stroke-width="2.0262" stroke-miterlimit="10"/>
<path d="M366.57 167.616V90.5565C366.57 77.494 377.146 66.9063 390.193 66.9063C403.241 66.9063 413.816 77.494 413.816 90.5565V146.815" stroke="url(#paint7_linear)" stroke-width="2.0262" stroke-miterlimit="10"/>
<path d="M267.617 68.9587H228.523V95.0476H267.617V68.9587Z" fill="url(#paint8_linear)"/>
<g opacity="0.86">
<path opacity="0.86" d="M297.752 100.758C290.42 105.647 279.025 104.838 271.693 100.758C266.411 97.8122 259.851 97.4379 253.593 98.8746C252.797 101.579 252.363 104.428 252.363 107.386C252.363 123.925 265.76 137.338 282.28 137.338C298.801 137.338 312.198 123.925 312.198 107.386C312.198 104.138 311.679 101.011 310.727 98.0898C305.915 97.6432 301.14 98.4882 297.752 100.758Z" fill="url(#paint9_linear)"/>
</g>
<path d="M269.45 51.8276H295.099" stroke="#73E2FF" stroke-width="3.377" stroke-miterlimit="10" stroke-linecap="round"/>
<path d="M353.812 119.096H370.658" stroke="#73E2FF" stroke-width="3.377" stroke-miterlimit="10" stroke-linecap="round"/>
<path d="M406.894 106.601H423.451" stroke="#73E2FF" stroke-width="3.377" stroke-miterlimit="10" stroke-linecap="round"/>
<path opacity="0.73" d="M278.205 57.538V81.1882C278.205 81.1882 257.85 88.5283 257.85 105.647C257.85 120.328 264.361 124.396 264.361 124.396" stroke="#D3FFFF" stroke-width="2.7016" stroke-miterlimit="10" stroke-linecap="round" stroke-linejoin="round"/>
<g opacity="0.82">
<path opacity="0.82" d="M384.176 171.045L375.337 155.386H349.146L340.307 171.032C338.98 173.375 340.668 176.26 343.357 176.26L362.241 176.272L381.125 176.284C383.802 176.272 385.49 173.387 384.176 171.045Z" fill="url(#paint10_linear)"/>
</g>
<path opacity="0.88" d="M415.154 159.141C412.297 159.141 409.957 156.799 409.957 153.926L409.969 130.106H415.179C418.036 130.106 420.388 130.106 420.388 130.106L420.376 153.926C420.364 156.799 418.012 159.141 415.154 159.141Z" fill="url(#paint11_linear)"/>
<path d="M437.861 159.141C435.003 159.141 432.664 156.799 432.664 153.926L432.676 114.617H443.082L443.07 153.926C443.07 156.799 440.731 159.141 437.861 159.141Z" fill="url(#paint12_linear)"/>
<path d="M460.676 159.141C457.818 159.141 455.479 156.799 455.479 153.926L455.491 114.617H465.897L465.885 153.926C465.873 156.799 463.534 159.141 460.676 159.141Z" fill="url(#paint13_linear)"/>
<path d="M482.743 118.746H393.304V124.553H482.743V118.746Z" fill="#E5E5E5"/>
<path d="M430.698 100.142L433.52 110.537H441.889L444.71 100.154C445.132 98.609 444.59 96.6773 443.733 96.6773L437.704 96.6653L431.675 96.6532C430.807 96.6773 430.276 98.5969 430.698 100.142Z" fill="#232323"/>
<path d="M453.501 100.142L456.323 110.537H464.691L467.513 100.154C467.935 98.609 467.392 96.6773 466.536 96.6773L460.507 96.6653L454.478 96.6532C453.622 96.6773 453.079 98.5969 453.501 100.142Z" fill="#232323"/>
<path d="M429.601 106.601H446.157" stroke="#73E2FF" stroke-width="3.377" stroke-miterlimit="10" stroke-linecap="round"/>
<path d="M452.584 106.601H469.153" stroke="#73E2FF" stroke-width="3.377" stroke-miterlimit="10" stroke-linecap="round"/>
<path opacity="0.73" d="M351.871 157.149L344.624 169.958" stroke="#D3FFFF" stroke-width="2.7016" stroke-miterlimit="10" stroke-linecap="round" stroke-linejoin="round"/>
<path opacity="0.73" d="M355.633 150.497L354.307 152.827" stroke="#D3FFFF" stroke-width="2.7016" stroke-miterlimit="10" stroke-linecap="round" stroke-linejoin="round"/>
<path d="M243.994 73.0272H233.407V77.1077H243.994V73.0272Z" fill="#00CEF1"/>
<path d="M262.721 78.7375H233.407V82.818H262.721V78.7375Z" fill="#00A0DF"/>
<path d="M256.21 84.4478H233.407V88.5284H256.21V84.4478Z" fill="#00CEF1"/>
<path d="M159.367 44.4875H155.05C155.93 46.6848 156.714 49.1596 157.389 51.9363H162.719C161.754 49.1355 160.621 46.6727 159.367 44.4875Z" fill="url(#paint14_linear)"/>
<path d="M153.241 44.4875H148.791C149.358 46.6968 149.877 49.1596 150.311 51.9363H155.689C154.965 49.1234 154.133 46.6485 153.241 44.4875Z" fill="url(#paint15_linear)"/>
<path d="M148.635 51.9363C148.188 49.1114 147.646 46.6485 147.079 44.4875H142.593C142.834 46.6848 143.064 49.1596 143.244 51.9363H148.635Z" fill="url(#paint16_linear)"/>
<path d="M165.649 44.4875H161.224C162.418 46.6848 163.503 49.1596 164.419 51.9363H169.834C168.7 49.2683 167.301 46.7934 165.649 44.4875Z" fill="url(#paint17_linear)"/>
<path d="M140.953 44.4875H136.492V51.9363H141.604C141.424 49.1476 141.194 46.6848 140.953 44.4875Z" fill="url(#paint18_linear)"/>
<path d="M171.775 44.4875H167.555C169.05 46.6848 170.4 49.1596 171.546 51.9363H176.84C175.381 49.1355 173.656 46.6727 171.775 44.4875Z" fill="url(#paint19_linear)"/>
<path d="M163.419 54.1697H157.884C158.354 56.4635 158.728 58.9384 159.005 61.6185H164.998C164.612 58.9263 164.07 56.4515 163.419 54.1697Z" fill="url(#paint20_linear)"/>
<path d="M156.183 54.1697H150.612C150.914 56.4635 151.155 58.9384 151.336 61.6185H157.353C157.064 58.9143 156.666 56.4394 156.183 54.1697Z" fill="url(#paint21_linear)"/>
<path d="M149.708 61.6185C149.527 58.9263 149.274 56.4515 148.96 54.1697H143.377C143.51 56.4515 143.606 58.9384 143.691 61.6185H149.708Z" fill="url(#paint22_linear)"/>
<path d="M141.749 54.1697H136.492V61.6185H142.063C141.978 58.9384 141.882 56.4515 141.749 54.1697Z" fill="url(#paint23_linear)"/>
<path d="M170.714 54.1697H165.107C165.746 56.4635 166.276 58.9384 166.65 61.6185H172.668C172.209 59.0109 171.558 56.5239 170.714 54.1697Z" fill="url(#paint24_linear)"/>
<path d="M177.901 54.1697H172.39C173.186 56.4635 173.837 58.9384 174.307 61.6185H180.289C179.71 58.9263 178.89 56.4515 177.901 54.1697Z" fill="url(#paint25_linear)"/>
<path d="M138.035 26.6321C141.858 26.6321 144.957 26.3403 144.957 25.9802C144.957 25.6202 141.858 25.3283 138.035 25.3283C134.212 25.3283 131.113 25.6202 131.113 25.9802C131.113 26.3403 134.212 26.6321 138.035 26.6321Z" stroke="#EB0045" stroke-width="0.428" stroke-miterlimit="10"/>
<path d="M138.12 25.8836V1.41248" stroke="white" stroke-width="0.6754" stroke-miterlimit="10" stroke-linecap="round"/>
<defs>
<linearGradient id="paint0_linear" x1="365.349" y1="116.654" x2="415.03" y2="116.654" gradientUnits="userSpaceOnUse">
<stop stop-color="white"/>
<stop offset="0.1332" stop-color="white"/>
<stop offset="1" stop-color="white"/>
</linearGradient>
<linearGradient id="paint1_linear" x1="120.2" y1="176.557" x2="135.899" y2="171.33" gradientUnits="userSpaceOnUse">
<stop stop-color="#325AF9" stop-opacity="0"/>
<stop offset="1" stop-color="#0B0C1C"/>
</linearGradient>
<linearGradient id="paint2_linear" x1="107.439" y1="129.294" x2="136.128" y2="76.0754" gradientUnits="userSpaceOnUse">
<stop stop-color="#41D9F1"/>
<stop offset="0.0683" stop-color="#41D9F1"/>
<stop offset="0.1263" stop-color="#52DCF2"/>
<stop offset="0.3561" stop-color="#8FE9F7"/>
<stop offset="0.5666" stop-color="#BFF2FA"/>
<stop offset="0.7507" stop-color="#E2F9FD"/>
<stop offset="0.9014" stop-color="#F7FDFE"/>
<stop offset="1" stop-color="white"/>
</linearGradient>
<linearGradient id="paint3_linear" x1="119.797" y1="92.1906" x2="119.797" y2="189.882" gradientUnits="userSpaceOnUse">
<stop offset="0.2362" stop-color="white" stop-opacity="0"/>
<stop offset="0.7435" stop-color="#6DCAF9"/>
</linearGradient>
<radialGradient id="paint4_radial" cx="0" cy="0" r="1" gradientUnits="userSpaceOnUse" gradientTransform="translate(59.2121 41.3402) scale(44.485 44.5365)">
<stop stop-color="white"/>
<stop offset="0.0861" stop-color="#F7FEFF"/>
<stop offset="0.2178" stop-color="#E2FBFD"/>
<stop offset="0.3788" stop-color="#BFF5FB"/>
<stop offset="0.5628" stop-color="#8FEEF9"/>
<stop offset="0.7663" stop-color="#51E5F5"/>
<stop offset="0.9832" stop-color="#06DAF1"/>
<stop offset="1" stop-color="#00D9F1"/>
</radialGradient>
<linearGradient id="paint5_linear" x1="282.277" y1="129.43" x2="282.277" y2="152.188" gradientUnits="userSpaceOnUse">
<stop stop-color="#FFCD35" stop-opacity="0"/>
<stop offset="0.7578" stop-color="#F59A29"/>
</linearGradient>
<linearGradient id="paint6_linear" x1="286.756" y1="87.9115" x2="360.87" y2="87.9115" gradientUnits="userSpaceOnUse">
<stop stop-color="white"/>
<stop offset="0.1332" stop-color="white"/>
<stop offset="1" stop-color="white"/>
</linearGradient>
<linearGradient id="paint7_linear" x1="365.349" y1="116.654" x2="415.03" y2="116.654" gradientUnits="userSpaceOnUse">
<stop stop-color="white"/>
<stop offset="0.1332" stop-color="white"/>
<stop offset="1" stop-color="white"/>
</linearGradient>
<linearGradient id="paint8_linear" x1="248.07" y1="101.857" x2="248.07" y2="85.9288" gradientUnits="userSpaceOnUse">
<stop stop-color="#00D9F1" stop-opacity="0"/>
<stop offset="0.0168" stop-color="#06DAF1" stop-opacity="0.0168"/>
<stop offset="0.2337" stop-color="#51E5F5" stop-opacity="0.2337"/>
<stop offset="0.4372" stop-color="#8FEEF9" stop-opacity="0.4372"/>
<stop offset="0.6212" stop-color="#BFF5FB" stop-opacity="0.6212"/>
<stop offset="0.7822" stop-color="#E2FBFD" stop-opacity="0.7822"/>
<stop offset="0.9139" stop-color="#F7FEFF" stop-opacity="0.9139"/>
<stop offset="1" stop-color="white"/>
</linearGradient>
<linearGradient id="paint9_linear" x1="282.449" y1="104.623" x2="281.316" y2="122.739" gradientUnits="userSpaceOnUse">
<stop stop-color="#F8636D"/>
<stop offset="1" stop-color="#EB0045"/>
</linearGradient>
<linearGradient id="paint10_linear" x1="339.841" y1="165.83" x2="384.629" y2="165.83" gradientUnits="userSpaceOnUse">
<stop stop-color="#7E5AF9"/>
<stop offset="1" stop-color="#4B26C1"/>
</linearGradient>
<linearGradient id="paint11_linear" x1="415.166" y1="161.474" x2="415.166" y2="116.873" gradientUnits="userSpaceOnUse">
<stop offset="0.1509" stop-color="#FFCD35"/>
<stop offset="0.7578" stop-color="#F59A29"/>
</linearGradient>
<linearGradient id="paint12_linear" x1="437.876" y1="162.719" x2="437.876" y2="94.3243" gradientUnits="userSpaceOnUse">
<stop stop-color="#325AF9"/>
<stop offset="1" stop-color="#5DB8E8"/>
</linearGradient>
<linearGradient id="paint13_linear" x1="460.68" y1="162.719" x2="460.68" y2="94.3243" gradientUnits="userSpaceOnUse">
<stop offset="0.2565" stop-color="#6DCAF9"/>
<stop offset="0.7638" stop-color="white"/>
</linearGradient>
<linearGradient id="paint14_linear" x1="135.508" y1="48.215" x2="181.277" y2="48.215" gradientUnits="userSpaceOnUse">
<stop stop-color="#325AF9"/>
<stop offset="1" stop-color="#5DB8E8"/>
</linearGradient>
<linearGradient id="paint15_linear" x1="135.508" y1="48.215" x2="181.277" y2="48.215" gradientUnits="userSpaceOnUse">
<stop stop-color="#325AF9"/>
<stop offset="1" stop-color="#5DB8E8"/>
</linearGradient>
<linearGradient id="paint16_linear" x1="135.508" y1="48.215" x2="181.277" y2="48.215" gradientUnits="userSpaceOnUse">
<stop stop-color="#325AF9"/>
<stop offset="1" stop-color="#5DB8E8"/>
</linearGradient>
<linearGradient id="paint17_linear" x1="135.508" y1="48.215" x2="181.277" y2="48.215" gradientUnits="userSpaceOnUse">
<stop stop-color="#325AF9"/>
<stop offset="1" stop-color="#5DB8E8"/>
</linearGradient>
<linearGradient id="paint18_linear" x1="135.508" y1="48.215" x2="181.277" y2="48.215" gradientUnits="userSpaceOnUse">
<stop stop-color="#325AF9"/>
<stop offset="1" stop-color="#5DB8E8"/>
</linearGradient>
<linearGradient id="paint19_linear" x1="135.508" y1="48.215" x2="181.277" y2="48.215" gradientUnits="userSpaceOnUse">
<stop stop-color="#325AF9"/>
<stop offset="1" stop-color="#5DB8E8"/>
</linearGradient>
<linearGradient id="paint20_linear" x1="133.084" y1="57.8932" x2="179.762" y2="57.8932" gradientUnits="userSpaceOnUse">
<stop stop-color="#F8636D"/>
<stop offset="1" stop-color="#EB0045"/>
</linearGradient>
<linearGradient id="paint21_linear" x1="133.084" y1="57.8932" x2="179.762" y2="57.8932" gradientUnits="userSpaceOnUse">
<stop stop-color="#F8636D"/>
<stop offset="1" stop-color="#EB0045"/>
</linearGradient>
<linearGradient id="paint22_linear" x1="133.084" y1="57.8932" x2="179.762" y2="57.8932" gradientUnits="userSpaceOnUse">
<stop stop-color="#F8636D"/>
<stop offset="1" stop-color="#EB0045"/>
</linearGradient>
<linearGradient id="paint23_linear" x1="133.084" y1="57.8932" x2="179.762" y2="57.8932" gradientUnits="userSpaceOnUse">
<stop stop-color="#F8636D"/>
<stop offset="1" stop-color="#EB0045"/>
</linearGradient>
<linearGradient id="paint24_linear" x1="133.084" y1="57.8932" x2="179.762" y2="57.8932" gradientUnits="userSpaceOnUse">
<stop stop-color="#F8636D"/>
<stop offset="1" stop-color="#EB0045"/>
</linearGradient>
<linearGradient id="paint25_linear" x1="133.084" y1="57.8932" x2="179.762" y2="57.8932" gradientUnits="userSpaceOnUse">
<stop stop-color="#F8636D"/>
<stop offset="1" stop-color="#EB0045"/>
</linearGradient>
</defs>
</svg>
