<svg width="258" height="42" viewBox="0 0 258 42" fill="none" xmlns="http://www.w3.org/2000/svg">
<path d="M183.031 29.0454H196.174V32.9893H178V4.56194H183.031V29.0454Z" fill="black"/>
<path d="M211.454 32.9893C211.242 32.5858 211.056 31.9284 210.897 31.0173C209.359 32.5923 207.477 33.3797 205.25 33.3797C203.089 33.3797 201.326 32.7745 199.961 31.564C198.595 30.3535 197.913 28.8566 197.913 27.0734C197.913 24.8216 198.761 23.097 200.458 21.8995C202.168 20.689 204.607 20.0837 207.775 20.0837H210.738V18.6975C210.738 17.6041 210.426 16.7321 209.803 16.0813C209.18 15.4174 208.232 15.0855 206.96 15.0855C205.86 15.0855 204.958 15.3589 204.256 15.9055C203.553 16.4392 203.202 17.1225 203.202 17.9556H198.37C198.37 16.7971 198.761 15.7168 199.543 14.7146C200.325 13.6993 201.386 12.9053 202.725 12.3326C204.077 11.7599 205.581 11.4735 207.238 11.4735C209.757 11.4735 211.765 12.0983 213.263 13.3479C214.761 14.5844 215.53 16.3286 215.57 18.5804V28.1082C215.57 30.0086 215.841 31.5249 216.385 32.6574V32.9893H211.454ZM206.145 29.5725C207.099 29.5725 207.994 29.3447 208.829 28.8892C209.677 28.4336 210.314 27.8218 210.738 27.0539V23.0709H208.133C206.343 23.0709 204.998 23.3768 204.097 23.9886C203.195 24.6003 202.744 25.4659 202.744 26.5853C202.744 27.4964 203.049 28.2253 203.659 28.772C204.282 29.3057 205.111 29.5725 206.145 29.5725Z" fill="black"/>
<path d="M238.08 22.6414C238.08 25.9215 237.331 28.5312 235.833 30.4706C234.348 32.41 232.3 33.3797 229.689 33.3797C227.17 33.3797 225.208 32.4881 223.803 30.7049L223.565 32.9893H219.19V3H224.022V13.8945C225.414 12.2805 227.29 11.4735 229.649 11.4735C232.274 11.4735 234.335 12.4302 235.833 14.3436C237.331 16.257 238.08 18.9318 238.08 22.3681V22.6414ZM233.248 22.2314C233.248 19.9405 232.837 18.2224 232.015 17.077C231.194 15.9316 230 15.3589 228.436 15.3589C226.342 15.3589 224.87 16.257 224.022 18.0532V26.761C224.884 28.5963 226.368 29.5139 228.476 29.5139C229.987 29.5139 231.154 28.9608 231.976 27.8544C232.798 26.748 233.222 25.0754 233.248 22.8366V22.2314Z" fill="black"/>
<path d="M253.248 27.2491C253.248 26.4031 252.89 25.7588 252.174 25.3162C251.471 24.8737 250.298 24.4832 248.655 24.1448C247.011 23.8064 245.639 23.3768 244.539 22.8562C242.126 21.7108 240.92 20.0512 240.92 17.8775C240.92 16.0552 241.702 14.5323 243.266 13.3088C244.83 12.0853 246.819 11.4735 249.231 11.4735C251.803 11.4735 253.877 12.0983 255.455 13.3479C257.046 14.5974 257.841 16.2179 257.841 18.2094H253.009C253.009 17.2983 252.664 16.5433 251.975 15.9446C251.286 15.3328 250.371 15.0269 249.231 15.0269C248.171 15.0269 247.302 15.2677 246.626 15.7493C245.964 16.2309 245.632 16.8752 245.632 17.6822C245.632 18.4111 245.944 18.9774 246.567 19.3809C247.19 19.7844 248.449 20.1944 250.345 20.6109C252.24 21.0144 253.725 21.5025 254.799 22.0752C255.886 22.6349 256.688 23.3117 257.205 24.1057C257.735 24.8997 258 25.8629 258 26.9953C258 28.8957 257.198 30.4381 255.594 31.6226C253.99 32.794 251.889 33.3797 249.291 33.3797C247.528 33.3797 245.957 33.0674 244.578 32.4426C243.2 31.8178 242.126 30.9587 241.357 29.8654C240.588 28.772 240.204 27.5941 240.204 26.3315H244.897C244.963 27.4509 245.394 28.3165 246.189 28.9282C246.984 29.527 248.038 29.8263 249.351 29.8263C250.623 29.8263 251.591 29.592 252.254 29.1235C252.916 28.6419 253.248 28.0171 253.248 27.2491Z" fill="black"/>
<path d="M14.06 37.3323H4.68361V28.0061L0 30.1978V42H4.68361H14.0508L14.06 37.3323Z" fill="#00A0DF"/>
<path d="M149.94 4.67686H159.316V14.0031L164 11.8114V0L159.316 0.00917031H149.949L149.94 4.67686Z" fill="#00A0DF"/>
<path d="M147.538 9.3537C146.867 9.3537 144.079 9.36287 143.49 9.36287C137.739 9.36287 136.092 14.2048 136.092 16.5249V25.5118C136.092 27.8319 137.748 32.6738 143.49 32.6738C144.088 32.6738 146.867 32.6738 147.538 32.6738C151.845 32.6738 154.55 29.4458 154.55 26.4655V15.562C154.55 12.5816 151.835 9.3537 147.538 9.3537ZM149.866 25.255C149.866 26.7498 149.333 28.0153 147.014 28.0153H143.48C141.889 28.0153 140.748 26.6764 140.748 25.1725V16.855C140.748 15.3511 141.889 14.0122 143.48 14.0122H147.005C149.314 14.0122 149.857 15.2869 149.857 16.7725C149.866 17.3961 149.866 24.7231 149.866 25.255Z" fill="black"/>
<path d="M133.534 32.3345L133.101 30.8673V0L128.381 2.1917V9.87642C127.635 9.54629 126.752 9.35371 125.703 9.35371C125.031 9.35371 122.243 9.35371 121.654 9.35371C115.903 9.35371 114.256 14.1956 114.256 16.5157C114.256 17.2952 114.238 23.0358 114.238 23.6777C114.238 28.107 118.047 32.6738 124.001 32.6738C125.547 32.6738 127.065 32.0227 128.463 31.124L128.822 32.3253H133.534V32.3345ZM118.903 23.3568V16.855C118.903 15.3511 120.044 14.0122 121.636 14.0122H125.519C127.801 14.0122 128.353 15.2502 128.371 16.7175V26.5939C127.295 27.4467 126.209 28.0245 124.12 28.0245C121.415 28.0245 118.903 26.1812 118.903 23.3568Z" fill="black"/>
<path d="M102.331 9.3537C100.684 9.3537 98.9539 9.90392 97.3529 10.7109L97.0492 9.70217H92.3656L92.7889 11.1327V32.3437H97.4725V15.3969C98.9539 14.5441 100.417 14.0214 102.184 14.0214C104.779 14.0214 106.978 15.1585 106.978 18.3864V32.3345H111.661V18.0471C111.671 12.4166 108.137 9.3537 102.331 9.3537Z" fill="black"/>
<path d="M89.8167 32.3345L89.2739 30.5279V15.562C89.2739 12.5816 86.5594 9.3537 82.2622 9.3537C81.5905 9.3537 78.462 9.3537 77.8639 9.3537C73.3919 9.3537 71.3952 12.2882 70.7326 14.6816L74.7905 16.5707V16.5157C74.7905 15.0118 75.9315 14.0214 77.5234 14.0214H81.7378C84.0474 14.0214 84.5902 15.2961 84.5902 16.7816V18.3406H82.7315H77.6798C72.1405 18.3406 70.1069 20.8808 70.1069 23.8886V26.4655C70.1069 29.4458 72.3613 32.6738 77.4682 32.6738C78.1399 32.6738 79.0693 32.6738 79.6582 32.6738C81.9586 32.6738 83.5689 31.9035 84.6823 30.8214L85.1331 32.3345H89.8167ZM84.5902 25.5118C84.5902 27.0157 83.4492 28.0244 81.8574 28.0244H77.643C75.3334 28.0244 74.7905 27.3367 74.7905 25.8511V24.6681C74.7905 22.8616 75.6831 23.0266 77.7074 23.0266H84.5902V25.5118Z" fill="black"/>
<path d="M61.071 13.6638H65.6442V9.35372H61.071V2.33844L56.3874 4.53014V9.36289H55.2924L52.9552 10.4542V13.6729H56.3782V26.4472C56.3782 31.1699 59.93 32.6646 62.9297 32.683C64.8805 32.6921 66.73 32.0411 67.5489 31.3991V28.3546H63.8407C61.163 28.3546 61.0618 27.5018 61.0618 24.3288L61.071 13.6638Z" fill="black"/>
<path d="M41.0668 9.3537C39.4197 9.3537 37.6898 9.90392 36.0887 10.7109L35.7851 9.70217H31.1014L31.5247 11.1327V32.3437H36.2083V15.3969C37.6898 14.5441 39.1528 14.0214 40.9195 14.0214C43.5144 14.0214 45.7136 15.1585 45.7136 18.3864V32.3345H50.3972V18.0471C50.4064 12.4166 46.873 9.3537 41.0668 9.3537Z" fill="black"/>
<path d="M20.9796 23.6869C26.519 23.6869 28.5525 21.1467 28.5525 18.1389V15.562C28.5525 12.5816 26.2981 9.3537 21.1912 9.3537C20.5195 9.3537 17.7314 9.36287 17.1333 9.36287C11.3915 9.36287 9.38559 14.2048 9.38559 16.5249C9.38559 17.3044 9.36719 23.045 9.36719 23.6961C9.36719 28.1253 13.5171 32.683 19.4797 32.683C22.8199 32.683 26.0313 31.4633 28.2029 29.3633L25.47 25.5851C23.0132 27.2633 22.3322 27.9969 19.6546 27.9969C16.9493 27.9969 14.0508 26.5113 14.0508 23.6869H20.9796ZM21.0164 14.003C23.326 14.003 23.8689 14.6908 23.8689 16.1764V17.1851C23.8689 19.1659 22.9763 19.0009 20.952 19.0009H14.0692V16.5065C14.0692 15.0026 15.2102 13.9939 16.8021 13.9939H21.0164V14.003Z" fill="black"/>
</svg>
