<svg width="65" height="88" viewBox="0 0 65 88" fill="none" xmlns="http://www.w3.org/2000/svg">
<path d="M26.898 77.2422V69.4622H19.888V77.2422H26.898Z" fill="#00A0DF"/>
<path d="M49.08 76.75H2.37V84.7H49.08V76.75Z" fill="white" stroke="#002F87" stroke-width="4.7482" stroke-miterlimit="10"/>
<path d="M42.6996 0.00531063L28.7697 13.9352L33.7265 18.892L47.6564 4.96208L42.6996 0.00531063Z" fill="#00A0DF"/>
<path d="M33.24 46.6901H13.54V53.7001H33.24V46.6901Z" fill="#00A0DF"/>
<path d="M23.39 57.2101C20.54 57.2101 18.24 54.9001 18.24 52.0601V46.9401H28.54V52.0601C28.54 54.9001 26.24 57.2101 23.39 57.2101Z" fill="#00A0DF"/>
<path d="M34.87 46.47H11.92V20.68C11.92 16.63 15.21 13.34 19.26 13.34H27.53C31.58 13.34 34.87 16.63 34.87 20.68V46.47Z" fill="white" stroke="#002F87" stroke-width="4.7482" stroke-miterlimit="10"/>
<path d="M59.16 84.7H47.29V46.94C47.29 37.83 41.8 35.35 34.87 35.35V22.09C44.76 22.09 59.16 25.1 59.16 46.94V84.7Z" fill="white" stroke="#002F87" stroke-width="4.7482" stroke-miterlimit="10"/>
<path d="M53.21 50.96C57.9375 50.96 61.77 47.1275 61.77 42.4C61.77 37.6724 57.9375 33.84 53.21 33.84C48.4824 33.84 44.65 37.6724 44.65 42.4C44.65 47.1275 48.4824 50.96 53.21 50.96Z" fill="white" stroke="#00A0DF" stroke-width="4.7482" stroke-miterlimit="10"/>
<path d="M49.08 65.16H8.01001" stroke="#002F87" stroke-width="4.7482" stroke-miterlimit="10"/>
</svg>
