<svg width="32" height="50" viewBox="0 0 32 50" fill="none" xmlns="http://www.w3.org/2000/svg">
<path d="M9.46957 37.8203V35.75C9.46957 32.2266 8.09457 28.875 5.69613 26.5625C2.66488 23.6406 1.02426 19.5469 1.18832 15.3281C1.48519 7.86719 7.54769 1.65625 14.993 1.19531C15.3133 1.17969 15.6258 1.17188 15.9383 1.17188C24.0789 1.17188 30.7039 7.79687 30.7039 15.9375C30.7039 20 29.0868 23.7891 26.1493 26.6016C23.7743 28.8828 22.4071 32.1875 22.4071 35.6641V37.8203H9.46957Z" fill="white"/>
<path d="M15.9383 2.34375C23.4305 2.34375 29.5321 8.44531 29.5321 15.9375C29.5321 19.6797 28.0399 23.1641 25.3446 25.75C22.7352 28.25 21.243 31.8594 21.243 35.6562V36.6406H10.6415V35.7422C10.6415 31.8984 9.13364 28.2422 6.50864 25.7109C3.71958 23.0234 2.20395 19.25 2.3602 15.3672C2.62583 8.51562 8.21177 2.79688 15.0633 2.36719C15.3524 2.35156 15.6493 2.34375 15.9383 2.34375ZM15.9383 0C15.6024 0 15.2586 0.0078125 14.9227 0.03125C6.84458 0.53125 0.336767 7.20312 0.016455 15.2891C-0.171045 20.0547 1.7352 24.375 4.88364 27.4141C7.13364 29.5781 8.2977 32.6328 8.2977 35.7578V39H23.579V35.6719C23.579 32.5938 24.7352 29.5859 26.9618 27.4531C29.993 24.5547 31.8758 20.4688 31.8758 15.9453C31.8758 7.13281 24.7352 0 15.9383 0Z" fill="#002F87"/>
<path d="M15.9383 50C12.5164 50 9.73517 47.2266 9.73517 43.7969V37.6406H22.1336V43.7969C22.1336 47.2266 19.3602 50 15.9383 50Z" fill="#00A0DF"/>
<path d="M23.3993 36.1562H8.30554C7.4696 36.1562 6.7821 36.8438 6.7821 37.6797C6.7821 38.5156 7.4696 39.2031 8.30554 39.2031H23.3915C24.2274 39.2031 24.9149 38.5156 24.9149 37.6797C24.9149 36.8438 24.2352 36.1562 23.3993 36.1562Z" fill="#002F87"/>
<path d="M23.3993 39.2031H8.30554C7.4696 39.2031 6.7821 39.8906 6.7821 40.7266C6.7821 41.5625 7.4696 42.25 8.30554 42.25H23.3915C24.2274 42.25 24.9149 41.5625 24.9149 40.7266C24.9149 39.8906 24.2352 39.2031 23.3993 39.2031Z" fill="#002F87"/>
<path d="M23.3993 42.2578H8.30554C7.4696 42.2578 6.7821 42.9453 6.7821 43.7813C6.7821 44.6172 7.4696 45.3125 8.30554 45.3125H23.3915C24.2274 45.3125 24.9149 44.625 24.9149 43.7891C24.9149 42.9531 24.2352 42.2578 23.3993 42.2578Z" fill="#002F87"/>
<path d="M15.8524 36.1562V22.2031" stroke="#F59A29" stroke-width="3" stroke-miterlimit="10"/>
<path d="M15.7586 21.9844C17.0832 21.9844 18.157 20.9106 18.157 19.5859C18.157 18.2613 17.0832 17.1875 15.7586 17.1875C14.434 17.1875 13.3602 18.2613 13.3602 19.5859C13.3602 20.9106 14.434 21.9844 15.7586 21.9844Z" fill="#F3F4F8" stroke="#F59A29" stroke-width="3" stroke-miterlimit="10"/>
</svg>
