<svg width="89" height="62" viewBox="0 0 89 62" fill="none" xmlns="http://www.w3.org/2000/svg">
<path d="M68.94 58.95H6.62C4.28 58.95 2.37 57.04 2.37 54.7V6.62C2.37 4.28 4.28 2.37 6.62 2.37H68.95C71.29 2.37 73.2 4.28 73.2 6.62V54.7C73.2 57.04 71.28 58.95 68.94 58.95Z" fill="white" stroke="#00A0DF" stroke-width="4.7268" stroke-miterlimit="10"/>
<path d="M19.68 9.30994V51.6199" stroke="#002F87" stroke-width="2.3634" stroke-miterlimit="10"/>
<path d="M13.58 9.30994H9.33V13.5599H13.58V9.30994Z" fill="#002F87"/>
<path d="M13.58 18.83H9.33V23.08H13.58V18.83Z" fill="#002F87"/>
<path d="M13.56 28.36H9.34V32.58H13.56V28.36Z" fill="#002F87"/>
<path d="M13.56 37.88H9.34V42.1H13.56V37.88Z" fill="#002F87"/>
<path d="M13.56 47.4H9.34V51.62H13.56V47.4Z" fill="#002F87"/>
<path d="M26.8 11.4399H37.28" stroke="#002F87" stroke-width="4.2541" stroke-miterlimit="10"/>
<path d="M26.8 40.0601H37.28" stroke="#002F87" stroke-width="4.2541" stroke-miterlimit="10"/>
<path d="M41.57 40.0601H59.59" stroke="#002F87" stroke-width="4.2541" stroke-miterlimit="10"/>
<path d="M31.89 49.51H50.45" stroke="#002F87" stroke-width="4.2541" stroke-miterlimit="10"/>
<path d="M55.19 49.51H62.25" stroke="#002F87" stroke-width="4.2541" stroke-miterlimit="10"/>
<path d="M31.89 21.17H47.32" stroke="#002F87" stroke-width="4.2541" stroke-miterlimit="10"/>
<path d="M31.89 30.61H39.17" stroke="#002F87" stroke-width="4.2541" stroke-miterlimit="10"/>
<path d="M42.79 30.61H48.87" stroke="#002F87" stroke-width="4.2541" stroke-miterlimit="10"/>
<path d="M41.36 11.4399H50.32" stroke="#002F87" stroke-width="4.2541" stroke-miterlimit="10"/>
<path d="M60.29 40.3499C68.1711 40.3499 74.56 33.961 74.56 26.0799C74.56 18.1988 68.1711 11.8099 60.29 11.8099C52.4089 11.8099 46.02 18.1988 46.02 26.0799C46.02 33.961 52.4089 40.3499 60.29 40.3499Z" fill="white" stroke="#002F87" stroke-width="4.2541" stroke-miterlimit="10"/>
<path d="M65.35 18.1899H47.54V24.5199H65.35V18.1899Z" fill="#00A0DF"/>
<path d="M60.6 28.34H48.2V34.67H60.6V28.34Z" fill="#00A0DF"/>
<path d="M60.29 40.3499C68.1711 40.3499 74.56 33.961 74.56 26.0799C74.56 18.1988 68.1711 11.8099 60.29 11.8099C52.4089 11.8099 46.02 18.1988 46.02 26.0799C46.02 33.961 52.4089 40.3499 60.29 40.3499Z" stroke="#002F87" stroke-width="4.2541" stroke-miterlimit="10"/>
<path d="M70.38 36.17L87.06 52.86" stroke="#002F87" stroke-width="4.2541" stroke-miterlimit="10"/>
</svg>
