<svg width="13" height="17" viewBox="0 0 13 17" fill="none" xmlns="http://www.w3.org/2000/svg">
<path d="M12.8571 13.6239C12.8571 10.9821 12.2042 7.92857 9.57255 7.92857C8.75893 8.7221 7.65402 9.21429 6.42857 9.21429C5.20312 9.21429 4.09821 8.7221 3.2846 7.92857C0.652902 7.92857 0 10.9821 0 13.6239C0 15.0904 0.964286 16.2857 2.13951 16.2857H10.7176C11.8929 16.2857 12.8571 15.0904 12.8571 13.6239ZM10.2857 4.71429C10.2857 2.58482 8.55804 0.857142 6.42857 0.857142C4.29911 0.857142 2.57143 2.58482 2.57143 4.71429C2.57143 6.84375 4.29911 8.57143 6.42857 8.57143C8.55804 8.57143 10.2857 6.84375 10.2857 4.71429Z" fill="black"/>
</svg>
