<svg width="55" height="56" viewBox="0 0 55 56" fill="none" xmlns="http://www.w3.org/2000/svg">
<g clip-path="url(#clip0)">
<path d="M55 0.516113H0V55.5161H55V0.516113Z" fill="#002F87"/>
<path d="M21.1512 42.8112H12.6891V34.3647L8.46191 36.3447V47.0383H12.6891H21.1433L21.1512 42.8112Z" fill="#00A0DF"/>
<path d="M33.8486 13.2213H42.3108V21.6677L46.5379 19.6877V8.99414H42.3108H33.8565L33.8486 13.2213Z" fill="#00A0DF"/>
<path d="M29.3226 30.4441C34.3198 30.4441 36.1584 28.1419 36.1584 25.4234V23.0662C36.1584 20.3555 34.1234 17.4327 29.5112 17.4327H25.8576C22.1255 17.3148 18.9984 20.2219 18.8569 23.9541C18.8569 24.6612 18.8569 29.8627 18.8569 30.4441C18.8569 34.4591 22.6048 38.5919 27.9869 38.5919C30.8941 38.6312 33.6991 37.5548 35.8441 35.5905L33.3848 32.1648C31.1612 33.6812 30.5484 34.3491 28.1362 34.3491C25.7241 34.3491 23.0841 33.0055 23.0841 30.4205L29.3226 30.4441ZM29.3226 21.6755C31.4126 21.6755 31.8998 22.2962 31.8998 23.6477V24.5669C31.8998 26.3584 31.1141 26.2091 29.2676 26.2091H23.0841V23.9541C23.0762 22.6969 24.0819 21.6755 25.3391 21.6677C25.4098 21.6677 25.4726 21.6677 25.5434 21.6755H29.3226Z" fill="white"/>
</g>
<defs>
<clipPath id="clip0">
<rect width="55" height="55" fill="white" transform="translate(0 0.516113)"/>
</clipPath>
</defs>
</svg>
