<svg width="1460" height="520" viewBox="0 0 1460 520" fill="none" xmlns="http://www.w3.org/2000/svg">
<g clip-path="url(#clip0)">
<path opacity="0.5" d="M610.2 40.9021H350.17L260.26 448.902H700.12L610.2 40.9021Z" fill="#00A0DF"/>
<path opacity="0.5" d="M-2 448.902H174.85L264.77 40.9021H-2V448.902Z" fill="#00A0DF"/>
<path opacity="0.5" d="M787.19 448.902H1047.22L1137.14 40.9021H697.28L787.19 448.902Z" fill="#00A0DF"/>
<path opacity="0.5" d="M1460 40.9021H1222.54L1132.63 448.902H1460V40.9021Z" fill="#00A0DF"/>
<path d="M924.227 442.303L988 64H1259.32L1195.56 442.303H924.227Z" fill="url(#paint0_linear)"/>
<path d="M1227.55 104.007H1124.51L1122.27 117.026H1225.31L1227.55 104.007Z" fill="#00CEF1"/>
<path d="M1223.56 131.417H1020.88L1018.64 144.447H1221.32L1223.56 131.417Z" fill="#00CEF1"/>
<path d="M1147.81 186.604H994.15L991.898 199.623H1145.57L1147.81 186.604Z" fill="#002F87"/>
<path d="M1186.37 354.845H959.761L957.509 367.864H1184.13L1186.37 354.845Z" fill="#00CEF1"/>
<path d="M1182.38 384.999H955.771L953.53 398.018H1180.14L1182.38 384.999Z" fill="#00CEF1"/>
<path d="M1138.05 314.405L1160 186.939H1194.24L1172.28 314.405H1138.05Z" fill="url(#paint1_linear)"/>
<path d="M1089.93 314.405L1103.91 233.537H1138.16L1124.18 314.405H1089.93Z" fill="url(#paint2_linear)"/>
<path d="M1039.83 314.405L1049.82 260.947H1084.06L1074.06 314.405H1039.83Z" fill="url(#paint3_linear)"/>
<path d="M989.218 314.405L996.223 274.56H1030.47L1023.46 314.405H989.218Z" fill="url(#paint4_linear)"/>
<path d="M1015.76 93.5489H1026.32L1028.14 83.2095H1008.24L1004.18 106.352H1013.51L1015.76 93.5489Z" fill="#FFCD35"/>
<path d="M813 478L857.117 221.793H1232.76L1188.64 478H813Z" fill="url(#paint5_linear)"/>
<path d="M891.15 459.795L920.492 289.426H1170.28L1140.94 459.795H891.15Z" fill="url(#paint6_linear)"/>
<path d="M1088.6 442.228L1111.89 306.983H1148.21L1124.92 442.228H1088.6Z" fill="url(#paint7_linear)"/>
<path d="M831.734 459.795L861.065 289.426H906.826L877.495 459.795H831.734Z" fill="#00CEF1"/>
<path d="M915.466 442.228L938.755 306.983H975.07L951.792 442.228H915.466Z" fill="url(#paint8_linear)"/>
<path d="M1210.7 241.953H927.686L921.529 277.715H1204.54L1210.7 241.953Z" fill="url(#paint9_linear)"/>
<path d="M877.024 251.763H887.045L888.763 241.953H869.893L866.029 263.918H874.888L877.024 251.763Z" fill="#002F87"/>
<path d="M1124.09 328.353C1068.75 328.353 1033.97 327.619 1020.5 345.921C1001.67 371.483 979.343 373.741 949.541 373.741" stroke="url(#paint10_linear)" stroke-width="4.0657" stroke-miterlimit="10"/>
<path d="M1106.93 348.654C1106.93 348.654 1094.26 348.654 1086.33 348.654C1078.41 348.654 1059.4 350.285 1059.4 373.99C1059.4 397.694 1045.14 407.493 1030.09 407.493C1015.04 407.493 954.043 407.493 954.043 407.493" stroke="url(#paint11_linear)" stroke-width="4.0657" stroke-miterlimit="10"/>
<path opacity="0.53" d="M1026.96 459.795L1043.07 366.156H1180.37L1164.24 459.795H1026.96Z" fill="#00A0DF"/>
</g>
<defs>
<linearGradient id="paint0_linear" x1="1065.63" y1="511.219" x2="1094.93" y2="214.245" gradientUnits="userSpaceOnUse">
<stop stop-color="#00D9F1"/>
<stop offset="0.0178" stop-color="#0DDBF2"/>
<stop offset="0.0916" stop-color="#3FE2F4"/>
<stop offset="0.1708" stop-color="#6DE9F7"/>
<stop offset="0.2537" stop-color="#94EFF9"/>
<stop offset="0.3412" stop-color="#B5F4FB"/>
<stop offset="0.4346" stop-color="#D0F8FC"/>
<stop offset="0.536" stop-color="#E5FBFE"/>
<stop offset="0.6496" stop-color="#F4FDFE"/>
<stop offset="0.7851" stop-color="#FCFFFF"/>
<stop offset="1" stop-color="white"/>
</linearGradient>
<linearGradient id="paint1_linear" x1="1171.81" y1="199.483" x2="1153.16" y2="357.831" gradientUnits="userSpaceOnUse">
<stop stop-color="#325AF9"/>
<stop offset="1" stop-color="#5DB8E8"/>
</linearGradient>
<linearGradient id="paint2_linear" x1="1121.49" y1="203.543" x2="1105.51" y2="345.549" gradientUnits="userSpaceOnUse">
<stop offset="0.1509" stop-color="#FFCD35"/>
<stop offset="0.7578" stop-color="#F59A29"/>
</linearGradient>
<linearGradient id="paint3_linear" x1="1067.07" y1="254.901" x2="1058.19" y2="308.214" gradientUnits="userSpaceOnUse">
<stop stop-color="#7E5AF9"/>
<stop offset="1" stop-color="#4B26C1"/>
</linearGradient>
<linearGradient id="paint4_linear" x1="1010.92" y1="276.683" x2="1009.14" y2="304.238" gradientUnits="userSpaceOnUse">
<stop stop-color="#F8636D"/>
<stop offset="1" stop-color="#EB0045"/>
</linearGradient>
<linearGradient id="paint5_linear" x1="1017.06" y1="536.509" x2="1021.39" y2="406.217" gradientUnits="userSpaceOnUse">
<stop stop-color="#00D9F1"/>
<stop offset="0.0168" stop-color="#06DAF1"/>
<stop offset="0.2337" stop-color="#51E5F5"/>
<stop offset="0.4372" stop-color="#8FEEF9"/>
<stop offset="0.6212" stop-color="#BFF5FB"/>
<stop offset="0.7822" stop-color="#E2FBFD"/>
<stop offset="0.9139" stop-color="#F7FEFF"/>
<stop offset="1" stop-color="white"/>
</linearGradient>
<linearGradient id="paint6_linear" x1="1022.58" y1="456.715" x2="1059.65" y2="105.54" gradientUnits="userSpaceOnUse">
<stop stop-color="#65D9F1"/>
<stop offset="0.0126" stop-color="#69DAF2"/>
<stop offset="0.1269" stop-color="#8AE6F6"/>
<stop offset="0.2505" stop-color="#A4EFF9"/>
<stop offset="0.3849" stop-color="#B9F6FC"/>
<stop offset="0.5354" stop-color="#C8FBFE"/>
<stop offset="0.715" stop-color="#D0FEFF"/>
<stop offset="1" stop-color="#D3FFFF"/>
</linearGradient>
<linearGradient id="paint7_linear" x1="1088.6" y1="374.605" x2="1148.21" y2="374.605" gradientUnits="userSpaceOnUse">
<stop stop-color="white"/>
<stop offset="0.1332" stop-color="white"/>
<stop offset="1" stop-color="white"/>
</linearGradient>
<linearGradient id="paint8_linear" x1="915.463" y1="374.605" x2="975.075" y2="374.605" gradientUnits="userSpaceOnUse">
<stop stop-color="white"/>
<stop offset="0.1332" stop-color="white"/>
<stop offset="1" stop-color="white"/>
</linearGradient>
<linearGradient id="paint9_linear" x1="921.524" y1="259.836" x2="1210.7" y2="259.836" gradientUnits="userSpaceOnUse">
<stop stop-color="#F8636D"/>
<stop offset="1" stop-color="#EB0045"/>
</linearGradient>
<linearGradient id="paint10_linear" x1="949.53" y1="351.051" x2="1124.09" y2="351.051" gradientUnits="userSpaceOnUse">
<stop stop-color="white"/>
<stop offset="0.1332" stop-color="white"/>
<stop offset="1" stop-color="white"/>
</linearGradient>
<linearGradient id="paint11_linear" x1="954.051" y1="378.079" x2="1106.93" y2="378.079" gradientUnits="userSpaceOnUse">
<stop stop-color="white"/>
<stop offset="0.1332" stop-color="white"/>
<stop offset="1" stop-color="white"/>
</linearGradient>
<clipPath id="clip0">
<rect width="1460" height="520" fill="white"/>
</clipPath>
</defs>
</svg>
