<svg width="30" height="30" viewBox="0 0 30 30" fill="none" xmlns="http://www.w3.org/2000/svg">
<path d="M15 0C6.7125 0 0 6.80939 0 15.2165C0 21.9371 4.3 27.6433 10.25 29.6468C11 29.7863 11.275 29.3171 11.275 28.9114C11.275 28.5563 11.2625 27.5926 11.25 26.3246C7.075 27.2376 6.2 24.283 6.2 24.283C5.5125 22.5331 4.5375 22.0639 4.5375 22.0639C3.175 21.1256 4.6375 21.1383 4.6375 21.1383C6.1375 21.2397 6.9375 22.7106 6.9375 22.7106C8.275 25.0312 10.45 24.3718 11.3 23.9787C11.4375 22.9896 11.825 22.3176 12.25 21.9498C8.925 21.5694 5.4125 20.2633 5.4125 14.4303C5.4125 12.7692 6 11.4124 6.9625 10.3472C6.7875 9.96682 6.2875 8.4198 7.1 6.31485C7.1 6.31485 8.3625 5.90908 11.225 7.87455C12.425 7.53217 13.7 7.36733 14.975 7.35465C16.25 7.36733 17.525 7.53217 18.725 7.87455C21.575 5.90908 22.8375 6.31485 22.8375 6.31485C23.65 8.40712 23.1375 9.95414 22.9875 10.3472C23.9375 11.4124 24.525 12.7692 24.525 14.4303C24.525 20.276 21.0125 21.5694 17.675 21.9371C18.2 22.3936 18.6875 23.332 18.6875 24.7522C18.6875 26.7937 18.6625 28.4295 18.6625 28.9241C18.6625 29.3171 18.925 29.799 19.6875 29.6468C25.7125 27.6307 30 21.9245 30 15.2165C30 6.80939 23.2875 0 15 0Z" fill="white"/>
</svg>
