<?xml version="1.0" encoding="UTF-8"?>
<svg width="14px" height="12px" viewBox="0 0 14 12" version="1.1" xmlns="http://www.w3.org/2000/svg" xmlns:xlink="http://www.w3.org/1999/xlink">
    <!-- Generator: sketchtool 63.1 (101010) - https://sketch.com -->
    <title>656D14F0-EFC3-49BD-95B3-E06E07715A44</title>
    <desc>Created with sketchtool.</desc>
    <g id="Home" stroke="none" stroke-width="1" fill="none" fill-rule="evenodd">
        <g transform="translate(-1516.000000, -25.000000)" fill="#FFFFFF" fill-rule="nonzero" id="Navbar_Menu">
            <g>
                <g id="Top_Menu" transform="translate(1260.000000, 24.000000)">
                    <g id="login-square-arrow-button-outline" transform="translate(256.000000, 1.000000)">
                        <path d="M7.20499904,8.16673769 C7.04255882,8.32441063 7.04255882,8.57960933 7.20499904,8.73686063 C7.36746098,8.8945125 7.6304108,8.8945125 7.79243829,8.73686063 L10.6585588,5.95482593 C10.7449923,5.8709403 10.7819639,5.75926847 10.7761205,5.64957836 C10.7819639,5.53950877 10.7449706,5.4282375 10.6585588,5.34437295 L7.79243829,2.56273881 C7.6304108,2.40508694 7.36702653,2.40508694 7.20499904,2.56273881 C7.04255882,2.72039067 7.04255882,2.97561045 7.20499904,3.13284067 L9.38314898,5.24678396 L0.415441176,5.24678396 C0.186117647,5.24680504 0,5.42743638 0,5.65 C0,5.87256362 0.186117647,6.05319496 0.415441176,6.05319496 L9.38314898,6.05319496 L7.20499904,8.16673769 Z M11.6323529,0.00527052239 L3.32352941,0.00527052239 C2.40582257,0.00527052239 1.66176471,0.727395336 1.66176471,1.61805037 L1.66176471,3.23083022 L2.49264706,3.23083022 L2.49264706,1.61805037 C2.49264706,1.17292313 2.86446963,0.811660448 3.32352941,0.811660448 L11.6323529,0.811660448 C12.0914127,0.811660448 12.4632353,1.17292313 12.4632353,1.61805037 L12.4632353,9.68194963 C12.4632353,10.1270769 12.0914127,10.4883396 11.6323529,10.4883396 L3.32352941,10.4883396 C2.86446963,10.4883396 2.49264706,10.1274774 2.49264706,9.68194963 L2.49264706,8.06916978 L1.66176471,8.06916978 L1.66176471,9.68194963 C1.66176471,10.5726047 2.40582257,11.2947295 3.32352941,11.2947295 L11.6323529,11.2947295 C12.5500598,11.2947295 13.2941176,10.5726047 13.2941176,9.68194963 L13.2941176,1.61805037 C13.2941176,0.727395336 12.5500598,0.00527052239 11.6323529,0.00527052239 Z" id="Shape"></path>
                    </g>
                </g>
            </g>
        </g>
    </g>
</svg>