<svg width="1921" height="455" viewBox="0 0 1921 455" fill="none" xmlns="http://www.w3.org/2000/svg">
<path d="M1921 0H1V455H1921V0Z" fill="url(#paint0_linear)"/>
<path opacity="0.5" d="M851.2 46H591.17L501.26 454.82H941.12L851.2 46Z" fill="#00A0DF"/>
<path opacity="0.5" d="M1027.91 454.82H1287.94L1377.86 46H938L1027.91 454.82Z" fill="#00A0DF"/>
<path opacity="0.5" d="M170.91 454.82H430.94L520.86 46H81L170.91 454.82Z" fill="#00A0DF"/>
<path opacity="0.5" d="M1529.91 454.82H1789.94L1879.86 46H1440L1529.91 454.82Z" fill="#00A0DF"/>
<path d="M1193.98 419.907L1258.76 48H1534.36L1469.59 419.907H1193.98Z" fill="url(#paint1_linear)"/>
<path d="M1502.09 87.3309H1397.42L1395.15 100.13H1499.81L1502.09 87.3309Z" fill="#00CEF1"/>
<path d="M1498.04 114.277H1292.16L1289.89 127.087H1495.76L1498.04 114.277Z" fill="#00CEF1"/>
<path d="M1421.09 168.531H1265.01L1262.72 181.33H1418.81L1421.09 168.531Z" fill="#002F87"/>
<path d="M1460.25 333.927H1230.08L1227.79 346.726H1457.98L1460.25 333.927Z" fill="#00CEF1"/>
<path d="M1456.2 363.571H1226.02L1223.75 376.37H1453.93L1456.2 363.571Z" fill="#00CEF1"/>
<path d="M1411.18 294.171L1433.47 168.86H1468.25L1445.95 294.171H1411.18Z" fill="url(#paint2_linear)"/>
<path d="M1362.3 294.171L1376.5 214.67H1411.28L1397.08 294.171H1362.3Z" fill="url(#paint3_linear)"/>
<path d="M1311.4 294.171L1321.55 241.617H1356.33L1346.18 294.171H1311.4Z" fill="url(#paint4_linear)"/>
<path d="M1260 294.171L1267.11 255H1301.89L1294.78 294.171H1260Z" fill="url(#paint5_linear)"/>
<path d="M1286.96 77.0494H1297.68L1299.53 66.8848H1279.32L1275.2 89.6357H1284.67L1286.96 77.0494Z" fill="#FFCD35"/>
<path d="M1081 455L1125.81 203.125H1507.38L1462.56 455H1081Z" fill="url(#paint6_linear)"/>
<path d="M1160.38 437.103L1190.19 269.615H1443.92L1414.11 437.103H1160.38Z" fill="url(#paint7_linear)"/>
<path d="M1360.95 419.833L1384.61 286.874H1421.49L1397.84 419.833H1360.95Z" fill="url(#paint8_linear)"/>
<path d="M1100.03 437.103L1129.82 269.615H1176.31L1146.51 437.103H1100.03Z" fill="#00CEF1"/>
<path d="M1185.08 419.833L1208.74 286.874H1245.63L1221.98 419.833H1185.08Z" fill="url(#paint9_linear)"/>
<path d="M1484.97 222.944H1197.49L1191.24 258.101H1478.71L1484.97 222.944Z" fill="url(#paint10_linear)"/>
<path d="M1146.03 232.589H1156.21L1157.96 222.944H1138.79L1134.86 244.538H1143.86L1146.03 232.589Z" fill="#002F87"/>
<path d="M1397 307.884C1340.78 307.884 1305.46 307.161 1291.77 325.154C1272.64 350.284 1249.96 352.504 1219.69 352.504" stroke="url(#paint11_linear)" stroke-width="4.0657" stroke-miterlimit="10"/>
<path d="M1379.56 327.841C1379.56 327.841 1366.69 327.841 1358.64 327.841C1350.59 327.841 1331.28 329.445 1331.28 352.748C1331.28 376.051 1316.8 385.685 1301.51 385.685C1286.23 385.685 1224.27 385.685 1224.27 385.685" stroke="url(#paint12_linear)" stroke-width="4.0657" stroke-miterlimit="10"/>
<path opacity="0.53" d="M1298.33 437.103L1314.7 345.048H1454.16L1437.78 437.103H1298.33Z" fill="#00A0DF"/>
<defs>
<linearGradient id="paint0_linear" x1="1139.17" y1="0" x2="1139.17" y2="455" gradientUnits="userSpaceOnUse">
<stop stop-color="#00CEF1"/>
<stop offset="1" stop-color="#00A0DF"/>
</linearGradient>
<linearGradient id="paint1_linear" x1="1337.61" y1="487.657" x2="1365.51" y2="195.526" gradientUnits="userSpaceOnUse">
<stop stop-color="#00D9F1"/>
<stop offset="0.0178" stop-color="#0DDBF2"/>
<stop offset="0.0916" stop-color="#3FE2F4"/>
<stop offset="0.1708" stop-color="#6DE9F7"/>
<stop offset="0.2537" stop-color="#94EFF9"/>
<stop offset="0.3412" stop-color="#B5F4FB"/>
<stop offset="0.4346" stop-color="#D0F8FC"/>
<stop offset="0.536" stop-color="#E5FBFE"/>
<stop offset="0.6496" stop-color="#F4FDFE"/>
<stop offset="0.7851" stop-color="#FCFFFF"/>
<stop offset="1" stop-color="white"/>
</linearGradient>
<linearGradient id="paint2_linear" x1="1445.46" y1="181.193" x2="1427.71" y2="336.998" gradientUnits="userSpaceOnUse">
<stop stop-color="#325AF9"/>
<stop offset="1" stop-color="#5DB8E8"/>
</linearGradient>
<linearGradient id="paint3_linear" x1="1394.35" y1="185.183" x2="1379.13" y2="324.899" gradientUnits="userSpaceOnUse">
<stop offset="0.1509" stop-color="#FFCD35"/>
<stop offset="0.7578" stop-color="#F59A29"/>
</linearGradient>
<linearGradient id="paint4_linear" x1="1339.07" y1="235.673" x2="1330.62" y2="288.175" gradientUnits="userSpaceOnUse">
<stop stop-color="#7E5AF9"/>
<stop offset="1" stop-color="#4B26C1"/>
</linearGradient>
<linearGradient id="paint5_linear" x1="1282.04" y1="257.087" x2="1280.35" y2="284.183" gradientUnits="userSpaceOnUse">
<stop stop-color="#F8636D"/>
<stop offset="1" stop-color="#EB0045"/>
</linearGradient>
<linearGradient id="paint6_linear" x1="1288.28" y1="512.52" x2="1292.39" y2="384.422" gradientUnits="userSpaceOnUse">
<stop stop-color="#00D9F1"/>
<stop offset="0.0168" stop-color="#06DAF1"/>
<stop offset="0.2337" stop-color="#51E5F5"/>
<stop offset="0.4372" stop-color="#8FEEF9"/>
<stop offset="0.6212" stop-color="#BFF5FB"/>
<stop offset="0.7822" stop-color="#E2FBFD"/>
<stop offset="0.9139" stop-color="#F7FEFF"/>
<stop offset="1" stop-color="white"/>
</linearGradient>
<linearGradient id="paint7_linear" x1="1293.88" y1="434.075" x2="1329.18" y2="88.5969" gradientUnits="userSpaceOnUse">
<stop stop-color="#65D9F1"/>
<stop offset="0.0126" stop-color="#69DAF2"/>
<stop offset="0.1269" stop-color="#8AE6F6"/>
<stop offset="0.2505" stop-color="#A4EFF9"/>
<stop offset="0.3849" stop-color="#B9F6FC"/>
<stop offset="0.5354" stop-color="#C8FBFE"/>
<stop offset="0.715" stop-color="#D0FEFF"/>
<stop offset="1" stop-color="#D3FFFF"/>
</linearGradient>
<linearGradient id="paint8_linear" x1="1360.95" y1="353.353" x2="1421.5" y2="353.353" gradientUnits="userSpaceOnUse">
<stop stop-color="white"/>
<stop offset="0.1332" stop-color="white"/>
<stop offset="1" stop-color="white"/>
</linearGradient>
<linearGradient id="paint9_linear" x1="1185.08" y1="353.353" x2="1245.63" y2="353.353" gradientUnits="userSpaceOnUse">
<stop stop-color="white"/>
<stop offset="0.1332" stop-color="white"/>
<stop offset="1" stop-color="white"/>
</linearGradient>
<linearGradient id="paint10_linear" x1="1191.23" y1="240.525" x2="1484.97" y2="240.525" gradientUnits="userSpaceOnUse">
<stop stop-color="#F8636D"/>
<stop offset="1" stop-color="#EB0045"/>
</linearGradient>
<linearGradient id="paint11_linear" x1="1219.68" y1="330.198" x2="1396.99" y2="330.198" gradientUnits="userSpaceOnUse">
<stop stop-color="white"/>
<stop offset="0.1332" stop-color="white"/>
<stop offset="1" stop-color="white"/>
</linearGradient>
<linearGradient id="paint12_linear" x1="1224.28" y1="356.769" x2="1379.56" y2="356.769" gradientUnits="userSpaceOnUse">
<stop stop-color="white"/>
<stop offset="0.1332" stop-color="white"/>
<stop offset="1" stop-color="white"/>
</linearGradient>
</defs>
</svg>
