<svg xmlns="http://www.w3.org/2000/svg" viewBox="0 0 70 70"><defs><style>.cls-1{fill:#002f87;}.cls-2{fill:#00a0df;}.cls-3{fill:#fff;}</style></defs><title>Entando_E_Logo_Dark_Blue_BG</title><g id="Livello_2" data-name="Livello 2"><g id="Entando_Dark_Blue"><g id="Entando_E_Logo_Dark_Blue_BG"><rect class="cls-1" width="70" height="70"/><polygon class="cls-2" points="26.92 53.83 16.15 53.83 16.15 43.08 10.77 45.6 10.77 59.21 16.15 59.21 16.15 59.21 26.91 59.21 26.92 53.83"/><polygon class="cls-2" points="43.08 16.17 53.85 16.17 53.85 26.92 59.23 24.4 59.23 10.79 53.85 10.79 53.85 10.79 43.09 10.79 43.08 16.17"/><path class="cls-3" d="M37.32,38.09c6.36,0,8.7-2.93,8.7-6.39v-3c0-3.45-2.59-7.17-8.46-7.17H32.91A8.64,8.64,0,0,0,24,29.83c0,.9,0,7.52,0,8.26,0,5.11,4.77,10.37,11.62,10.37a14.53,14.53,0,0,0,10-3.82l-3.13-4.36c-2.83,1.93-3.61,2.78-6.68,2.78s-6.43-1.71-6.43-5Zm0-11.16c2.66,0,3.28.79,3.28,2.51v1.17c0,2.28-1,2.09-3.35,2.09H29.38V29.83a2.89,2.89,0,0,1,3.13-2.9Z"/></g></g></g></svg>