<svg xmlns="http://www.w3.org/2000/svg" viewBox="0 0 48.46 48.43"><defs><style>.cls-1{fill:#00a0df;}.cls-2{fill:#002f87;}</style></defs><title>Entando_E_Logo_Dark_Blue</title><g id="Livello_2" data-name="Livello 2"><g id="Entando_Dark_Blue"><g id="Entando_E_Logo_Dark_Blue"><polygon class="cls-1" points="16.15 43.04 5.38 43.04 5.38 32.29 0 34.81 0 48.43 5.38 48.42 5.38 48.42 16.14 48.42 16.15 43.04"/><polygon class="cls-1" points="32.31 5.39 43.08 5.39 43.08 16.14 48.46 13.61 48.46 0 43.08 0 43.08 0.01 32.31 0.01 32.31 5.39"/><path class="cls-2" d="M26.55,27.31c6.36,0,8.7-2.93,8.7-6.4v-3c0-3.44-2.59-7.16-8.46-7.16H22.13A8.64,8.64,0,0,0,13.23,19c0,.9,0,7.52,0,8.27,0,5.11,4.77,10.37,11.62,10.37a14.54,14.54,0,0,0,10-3.83L31.72,29.5c-2.83,1.93-3.61,2.78-6.68,2.78s-6.44-1.72-6.44-5Zm0-11.17c2.66,0,3.28.79,3.28,2.52v1.16c0,2.28-1,2.1-3.36,2.1H18.6V19a2.9,2.9,0,0,1,3.14-2.9Z"/></g></g></g></svg>