<svg xmlns="http://www.w3.org/2000/svg" viewBox="0 0 198.6 66.27"><defs><style>.cls-1{fill:#002f87;}.cls-2{fill:#fff;}.cls-3{fill:#00a0df;}</style></defs><title>Entando_Logo_Dark_Blue_BG</title><g id="Livello_2" data-name="Livello 2"><g id="Entando_Dark_Blue"><g id="Entando_Logo_Dark_Blue_BG"><rect class="cls-1" width="198.6" height="66.27"/><path class="cls-2" d="M76.55,25.14h5v-4.7h-5V12.79l-5.09,2.38v5.27H70.27l-2.53,1.19v3.51h3.72V39.07c0,5.15,3.87,6.79,7.12,6.81a9,9,0,0,0,5-1.4V41.16h-4c-2.9,0-3-.93-3-4.38Z"/><polygon class="cls-3" points="25.46 50.95 15.28 50.95 15.28 40.78 10.19 43.17 10.19 56.05 15.28 56.04 15.28 56.04 25.45 56.04 25.46 50.95"/><polygon class="cls-3" points="173.14 15.34 183.32 15.34 183.32 25.51 188.41 23.12 188.41 10.25 183.32 10.25 183.32 10.25 173.15 10.25 173.14 15.34"/><path class="cls-2" d="M33,36.07c6,0,8.23-2.77,8.23-6V27.21c0-3.25-2.45-6.77-8-6.77H28.81a8.18,8.18,0,0,0-8.42,7.82c0,.85,0,7.11,0,7.81,0,4.83,4.51,9.81,11,9.81a13.76,13.76,0,0,0,9.48-3.62l-3-4.12c-2.67,1.83-3.41,2.63-6.31,2.63s-6.09-1.62-6.09-4.7ZM33,25.52c2.51,0,3.09.74,3.09,2.37V29c0,2.16-1,2-3.17,2H25.47V28.26a2.74,2.74,0,0,1,3-2.74Z"/><path class="cls-2" d="M155.3,45.5l-.47-1.59V10.24l-5.14,2.39V21a7,7,0,0,0-2.9-.57h-4.41a7.8,7.8,0,0,0-8,7.82c0,.85,0,7.11,0,7.81,0,4.83,4.13,9.81,10.61,9.81a9.17,9.17,0,0,0,4.85-1.69l.39,1.31Zm-15.89-9.79V28.63a3,3,0,0,1,3-3.1h4.22c2.48,0,3.08,1.35,3.09,2.95V39.24a6.55,6.55,0,0,1-4.61,1.56C142.14,40.8,139.41,38.79,139.41,35.71Z"/><path class="cls-2" d="M54.82,20.44a12.36,12.36,0,0,0-5.42,1.48l-.32-1.1H44l.46,1.55V45.5h5.09V27a9.87,9.87,0,0,1,5.12-1.5c2.82,0,5.21,1.24,5.21,4.76V45.5H65V29.92C65,23.78,61.12,20.44,54.82,20.44Z"/><path class="cls-2" d="M121.4,20.44A12.28,12.28,0,0,0,116,21.92l-.33-1.1h-5.09l.46,1.55V45.5h5.09V27a9.87,9.87,0,0,1,5.12-1.5c2.82,0,5.21,1.24,5.21,4.76V45.5h5.1V29.92C131.55,23.78,127.7,20.44,121.4,20.44Z"/><path class="cls-2" d="M170.52,20.44h-4.4a7.8,7.8,0,0,0-8.05,7.82v9.8a7.8,7.8,0,0,0,8.05,7.81h4.4c4.68,0,7.63-3.52,7.63-6.78V27.21C178.15,24,175.2,20.44,170.52,20.44Zm2.54,17.34c0,1.63-.58,3-3.1,3h-3.84a3,3,0,0,1-3-3.1c0-.74,0-8.3,0-9.06a3,3,0,0,1,3-3.1H170c2.51,0,3.09,1.39,3.09,3C173.05,29.21,173.06,37.2,173.06,37.78Z"/><path class="cls-2" d="M107.8,45.5l-.59-2V27.22c0-3.26-2.95-6.78-7.63-6.78H94.8a7.6,7.6,0,0,0-7.75,5.8l4.41,2.07v-.06a2.72,2.72,0,0,1,3-2.72H99c2.51,0,3.09,1.38,3.09,3v1.69H94.6c-6,0-8.23,2.78-8.23,6.05V39.1c0,3.26,2.45,6.78,8,6.78h2.38a7.53,7.53,0,0,0,5.46-2l.49,1.64Zm-5.69-7.44a2.73,2.73,0,0,1-3,2.74H94.56c-2.52,0-3.1-.75-3.1-2.37v-1.3c0-2,1-1.79,3.17-1.79h7.48Z"/></g></g></g></svg>