<?xml version="1.0" encoding="UTF-8"?>
<svg width="29px" height="28px" viewBox="0 0 29 28" version="1.1" xmlns="http://www.w3.org/2000/svg" xmlns:xlink="http://www.w3.org/1999/xlink">
    <!-- Generator: Sketch 63.1 (92452) - https://sketch.com -->
    <title>Github</title>
    <desc>Created with Sketch.</desc>
    <g id="Symbols" stroke="none" stroke-width="1" fill="none" fill-rule="evenodd">
        <g id="Footer" transform="translate(-573.000000, -423.000000)">
            <g id="Social-Icons">
                <g>
                    <g>
                        <g>
                            <g transform="translate(390.000000, 423.000000)">
                                <g id="Slideshare" transform="translate(183.448276, 0.000000)">
                                    <g id="Github">
                                        <rect id="Rectangle-Copy-5" fill="#002F87" x="-1.0658141e-14" y="0" width="28" height="28"></rect>
                                        <g id="cfd4d03baf3a92620d0830cb068793d5" transform="translate(5.551724, 5.000000)" fill="#FFFFFF" fill-rule="nonzero">
                                            <g id="Group" transform="translate(9.000000, 9.000000) scale(-1, 1) rotate(-180.000000) translate(-9.000000, -9.000000) translate(0.000000, -0.000000)">
                                                <path d="M8.17972168,17.9601009 C7.04168087,17.862824 5.94166046,17.5383791 4.92998699,17.0191918 C3.45049719,16.2534189 2.35047679,15.2346506 1.43357883,13.8005701 C0.776027807,12.7752036 0.327129848,11.6137247 0.105803317,10.3547804 C-0.0394823973,9.54357391 -0.0330538259,7.94717676 0.112231888,7.16198614 C0.719272705,3.9109388 2.83721148,1.27616712 5.76441556,0.14711392 C6.24490536,-0.0410301942 6.43464005,-0.0476284346 6.59902781,0.121098 C6.71290536,0.237981117 6.72539515,0.335258034 6.72539515,1.11403893 L6.72539515,1.97067906 L5.92237475,1.97067906 C5.22698699,1.97067906 5.06884413,1.99009674 4.81592577,2.11338958 C4.3165176,2.34696729 3.98131352,2.72325552 3.66521148,3.39834978 C3.38694617,3.99539628 3.0330074,4.44313403 2.59678291,4.76116922 C2.16055842,5.07920441 2.5020074,5.32579008 3.12153801,5.14405569 C3.39337475,5.05959821 3.54508903,4.96232129 3.81692577,4.67030202 C4.00666046,4.46914995 4.26582373,4.16412272 4.38594617,3.98898656 C4.52498699,3.78783449 4.73364005,3.59969038 4.95496658,3.4697993 C5.25839515,3.29466314 5.35959924,3.26864723 5.77690536,3.27505694 C6.03606862,3.28165518 6.35859924,3.32708878 6.49139515,3.37233386 C6.71272168,3.45679134 6.74431352,3.50863466 6.87068087,3.89152113 C6.94653801,4.11868912 7.07308903,4.39770043 7.15519107,4.50157559 L7.30066046,4.6897197 L6.64935434,4.83243022 C5.47972168,5.08561413 4.81592577,5.43588644 4.21531352,6.11739042 C3.59578291,6.81171384 3.24790536,7.89533344 3.24790536,9.14126976 C3.24790536,10.1146045 3.43121148,10.7376669 3.92437475,11.4255806 L4.1392727,11.7306078 L4.06341556,12.1265023 C3.93061964,12.8338337 4.11392577,14.0863682 4.36684413,14.1836451 C4.63243597,14.2875203 5.70710944,13.8852161 6.42784413,13.4114625 L6.72502781,13.2167201 L7.31296658,13.3336032 C8.12223189,13.5023297 9.87355842,13.5087394 10.6828237,13.340013 L11.2582727,13.2167201 L11.8146196,13.5477633 C12.4341503,13.9112321 13.0031707,14.1253921 13.4204768,14.1512195 L13.704987,14.1706372 L13.8251094,13.8461923 C13.9832523,13.4308802 14.0401911,12.5093887 13.9325584,12.074659 L13.8567013,11.7436158 L14.1412115,11.3022878 C14.6470482,10.5106874 14.7229054,10.2250779 14.7229054,9.10884413 C14.7166605,8.29122787 14.6975584,8.05105192 14.577436,7.61632213 C14.2233135,6.35096813 13.470987,5.52675363 12.2760074,5.07901589 C12.1242931,5.02057433 11.7132319,4.91028945 11.3530482,4.83243022 L10.7017421,4.6897197 L10.8407829,4.51458355 C10.9166401,4.41070839 11.0367625,4.17713068 11.1063747,3.99539628 C11.2327421,3.69036905 11.2454156,3.50222494 11.2645176,1.97067906 C11.2771911,0.841437338 11.3087829,0.257398796 11.3592931,0.199145759 C11.5743747,-0.073455833 11.8713747,-0.0216125151 12.8957217,0.47815707 C14.128538,1.06860533 15.3993747,2.1394055 16.2402319,3.29447462 C17.0241503,4.35867655 17.656538,5.8642065 17.8903543,7.1946003 C18.0358237,8.0188148 18.0358237,9.48532087 17.8903543,10.3095354 C17.5237421,12.3926941 16.3919462,14.4238211 14.8492727,15.7540264 C12.9721298,17.3890704 10.5821707,18.1806707 8.17972168,17.9601009 Z" id="Path"></path>
                                            </g>
                                        </g>
                                    </g>
                                </g>
                            </g>
                        </g>
                    </g>
                </g>
            </g>
        </g>
    </g>
</svg>