<?xml version="1.0" encoding="UTF-8"?>
<svg width="29px" height="28px" viewBox="0 0 29 28" version="1.1" xmlns="http://www.w3.org/2000/svg" xmlns:xlink="http://www.w3.org/1999/xlink">
    <!-- Generator: Sketch 63.1 (92452) - https://sketch.com -->
    <title>Instagram@1,5x</title>
    <desc>Created with Sketch.</desc>
    <defs>
        <polygon id="path-1" points="0 0.0809571812 15.7495381 0.0809571812 15.7495381 16.7374699 0 16.7374699"></polygon>
    </defs>
    <g id="Symbols" stroke="none" stroke-width="1" fill="none" fill-rule="evenodd">
        <g id="Footer" transform="translate(-619.000000, -423.000000)">
            <g id="Social-Icons">
                <g>
                    <g>
                        <g>
                            <g transform="translate(390.000000, 423.000000)">
                                <g id="Instagram" transform="translate(229.793103, 0.000000)">
                                    <rect id="Rectangle-Copy-6" fill="#002F87" x="0" y="0" width="28" height="28"></rect>
                                    <g id="Group-18-Copy" transform="translate(6.086957, 5.478261)">
                                        <g id="Group-8">
                                            <g id="Group-3" transform="translate(0.000000, 0.037748)">
                                                <mask id="mask-2" fill="white">
                                                    <use xlink:href="#path-1"></use>
                                                </mask>
                                                <g id="Clip-2"></g>
                                                <path d="M4.48254271,1.50861689 C2.75514215,1.50861689 1.34987542,2.99481031 1.34987542,4.82145122 L1.34987542,11.9967266 C1.34987542,13.8236049 2.75514215,15.309917 4.48254271,15.309917 L11.2668831,15.309917 C12.9942837,15.309917 14.3995504,13.8236049 14.3995504,11.9967266 L14.3995504,4.82145122 C14.3995504,2.99481031 12.9942837,1.50861689 11.2668831,1.50861689 L4.48254271,1.50861689 Z M11.2668831,16.7374699 L4.48254271,16.7374699 C2.0108671,16.7374699 -5.61208757e-05,14.61086 -5.61208757e-05,11.9967266 L-5.61208757e-05,4.82145122 C-5.61208757e-05,2.20755514 2.0108671,0.0809453107 4.48254271,0.0809453107 L11.2668831,0.0809453107 C13.7385587,0.0809453107 15.7495942,2.20755514 15.7495942,4.82145122 L15.7495942,11.9967266 C15.7495942,14.61086 13.7385587,16.7374699 11.2668831,16.7374699 L11.2668831,16.7374699 Z" id="Fill-1" fill="#FFFFFF" mask="url(#mask-2)"></path>
                                            </g>
                                            <path d="M7.87478027,5.60977474 C6.39543398,5.60977474 5.19209016,6.88253559 5.19209016,8.44695596 C5.19209016,10.0113763 6.39543398,11.2840185 7.87478027,11.2840185 C9.35401431,11.2840185 10.5573581,10.0113763 10.5573581,8.44695596 C10.5573581,6.88253559 9.35401431,5.60977474 7.87478027,5.60977474 M7.87478027,12.7118088 C5.65104669,12.7118088 3.84204638,10.7986315 3.84204638,8.44695596 C3.84204638,6.09528042 5.65104669,4.18198446 7.87478027,4.18198446 C10.0982894,4.18198446 11.9074019,6.09528042 11.9074019,8.44695596 C11.9074019,10.7986315 10.0982894,12.7118088 7.87478027,12.7118088" id="Fill-4" fill="#FFFFFF"></path>
                                            <path d="M13.0495291,3.93810391 C13.0495291,4.50432936 12.6156025,4.96300758 12.0803216,4.96300758 C11.5451529,4.96300758 11.1110018,4.50432936 11.1110018,3.93810391 C11.1110018,3.37199717 11.5451529,2.91284413 12.0803216,2.91284413 C12.6156025,2.91284413 13.0495291,3.37199717 13.0495291,3.93810391" id="Fill-6" fill="#FFFFFF"></path>
                                        </g>
                                    </g>
                                </g>
                            </g>
                        </g>
                    </g>
                </g>
            </g>
        </g>
    </g>
</svg>