<?xml version="1.0" encoding="UTF-8"?>
<svg width="29px" height="28px" viewBox="0 0 29 28" version="1.1" xmlns="http://www.w3.org/2000/svg" xmlns:xlink="http://www.w3.org/1999/xlink">
    <!-- Generator: Sketch 63.1 (92452) - https://sketch.com -->
    <title>LinkedIn@1,5x</title>
    <desc>Created with Sketch.</desc>
    <g id="Symbols" stroke="none" stroke-width="1" fill="none" fill-rule="evenodd">
        <g id="Footer" transform="translate(-481.000000, -423.000000)">
            <g id="Social-Icons">
                <g>
                    <g>
                        <g>
                            <g transform="translate(390.000000, 423.000000)">
                                <g id="LinkedIn" transform="translate(91.724138, 0.000000)">
                                    <rect id="Rectangle-Copy-3" fill="#002F87" x="0" y="0" width="28" height="28"></rect>
                                    <path d="M7.31834783,20.099505 L9.929288,20.099505 L9.929288,11.39677 L7.31834783,11.39677 L7.31834783,20.099505 Z M17.4902453,11.0957101 C16.2230658,11.0957101 15.0890658,11.5584281 14.2847239,12.5797101 L14.2847239,11.3681717 L11.6643307,11.3681717 L11.6643307,20.099505 L14.2847239,20.099505 L14.2847239,15.3781546 C14.2847239,14.3802059 15.1989119,13.4066674 16.3441598,13.4066674 C17.489288,13.4066674 17.7715615,14.3802059 17.7715615,15.3533854 L17.7715615,20.0985478 L20.3826213,20.0985478 L20.3826213,15.1594195 C20.3826213,11.7281033 18.7579034,11.0957101 17.4902453,11.0957101 Z M8.61173244,10.5273341 C9.33291193,10.5273341 9.91863842,9.94172724 9.91863842,9.21994946 C9.91863842,8.49829134 9.33291193,7.91304348 8.61173244,7.91304348 C7.88995466,7.91304348 7.30434783,8.49876997 7.30434783,9.21994946 C7.30434783,9.94172724 7.88995466,10.5273341 8.61173244,10.5273341 Z" id="Fill-2" fill="#FFFFFF"></path>
                                </g>
                            </g>
                        </g>
                    </g>
                </g>
            </g>
        </g>
    </g>
</svg>