<svg width="50" height="50" viewBox="0 0 50 50" fill="none" xmlns="http://www.w3.org/2000/svg">
<path d="M20.1239 35.5216C20.1239 35.5216 14.0227 46.021 0 49.9974C3.97635 35.9668 14.4758 29.8734 14.4758 29.8734C14.4758 29.8734 20.1239 35.2559 20.1239 35.5216Z" fill="#EB0045"/>
<path d="M15.7881 26.8032L19.4911 30.5061L23.194 34.2091L20.9988 34.8965L18.0458 31.9514L15.0929 28.9984L15.7881 26.8032ZM15.1163 24.0846L13.4523 29.4046L17.0225 32.9748L20.5926 36.5449L25.9126 34.8809L20.5145 29.4828L15.1163 24.0846Z" fill="#00A0DF"/>
<path d="M14.9991 23.7332H3.20282L10.2415 16.6945H22.0378L14.9991 23.7332Z" fill="#002F87"/>
<path d="M10.7781 19.5075L9.10431 17.8337L2.84017 24.0979L4.51392 25.7716L10.7781 19.5075Z" fill="#002F87"/>
<path d="M26.2642 34.9982V46.7944L33.3029 39.7557V27.9595L26.2642 34.9982Z" fill="#002F87"/>
<path d="M24.224 45.4875L25.8978 47.1613L32.1619 40.8971L30.4882 39.2234L24.224 45.4875Z" fill="#002F87"/>
<path d="M15.3351 24.3815C16.4209 22.2175 20.0692 15.5382 26.4907 9.12446C33.4122 2.20295 41.6618 1.17175 45.9663 1.17175C47.1303 1.17175 48.0599 1.24206 48.6771 1.31237C48.9974 4.31221 49.427 14.9523 40.8728 23.5065C34.4512 29.9281 27.7719 33.5763 25.6158 34.6622L15.3351 24.3815Z" fill="white"/>
<path d="M45.9663 2.34363C46.5912 2.34363 47.1459 2.36706 47.6146 2.39831C47.8724 6.09343 47.599 15.132 40.0447 22.6785C34.3653 28.3579 28.4672 31.8265 25.8345 33.2248L21.3035 28.6938L16.7725 24.1628C18.1708 21.5301 21.6394 15.6398 27.3188 9.9526C33.9356 3.33576 41.8415 2.34363 45.9663 2.34363ZM45.9663 0C41.2165 0 32.7873 1.164 25.6626 8.29644C17.6396 16.3195 13.9211 24.6237 13.9211 24.6237L19.6473 30.35L25.3736 36.0762C25.3736 36.0762 33.6778 32.3499 41.7009 24.3347C52.3019 13.7337 49.7239 0.273423 49.7239 0.273423C49.7239 0.273423 48.2786 0 45.9663 0Z" fill="#002F87"/>
<path d="M36.5448 19.1239C39.6772 19.1239 42.2164 16.5847 42.2164 13.4523C42.2164 10.32 39.6772 7.78076 36.5448 7.78076C33.4125 7.78076 30.8733 10.32 30.8733 13.4523C30.8733 16.5847 33.4125 19.1239 36.5448 19.1239Z" fill="#00A0DF"/>
<path d="M26.8934 24.7813L25.2196 23.1075L13.531 34.7962L15.2047 36.4699L26.8934 24.7813Z" fill="#002F87"/>
</svg>
