<?xml version="1.0" encoding="UTF-8"?>
<svg width="29px" height="28px" viewBox="0 0 29 28" version="1.1" xmlns="http://www.w3.org/2000/svg" xmlns:xlink="http://www.w3.org/1999/xlink">
    <!-- Generator: Sketch 63.1 (92452) - https://sketch.com -->
    <title>Slideshare@1,5x</title>
    <desc>Created with Sketch.</desc>
    <defs>
        <path d="M16.5065023,14.0761401 C18.6668518,13.1896547 20.0771819,12.0623149 20.8171431,11.1548974 C21.1990848,10.5919071 20.7924052,10.000645 20.1704247,10.4342372 C20.0913179,10.4913246 20.0103081,10.5459654 19.9309295,10.6000625 L19.9309295,2.55536344 C19.9309295,1.43889743 19.0903858,0.536101309 18.0579198,0.536101309 L3.48351203,0.536101309 C2.44941494,0.536101309 1.61023048,1.43889743 1.61023048,2.55536344 L1.61023048,10.6071304 C1.52677417,10.5511304 1.44277417,10.4940431 1.35931786,10.4342372 C0.739240186,10.000645 0.332288729,10.5905479 0.712599409,11.1548974 C1.45283242,12.0623149 2.86180329,13.1896547 5.02188096,14.0761401 C2.73757028,21.8617712 10.6012208,23.0989363 10.4797062,19.1074411 C10.4797062,19.1813829 10.4840557,16.8410722 10.4884052,15.1828198 C10.6947353,15.2303926 10.8730654,15.2774217 11.041881,15.3195576 C11.0443276,16.9682955 11.0486771,19.1786644 11.0486771,19.1074411 C10.9285217,23.0989363 18.797881,21.8617712 16.5065023,14.0761401 Z" id="path-1"></path>
        <path d="M17.2741916,1.61070325 C18.5010266,1.61070325 18.9329878,2.13726636 18.9329878,3.46848966 L18.9329878,11.2076353 C16.1313567,12.7226256 13.7187353,12.4594799 12.4100751,12.4176159 C11.4485606,12.3686838 11.0916285,12.7827033 11.0443276,13.4196353 C10.8129878,13.2548974 10.5762111,13.0602566 10.3334538,12.8343537 C10.2932208,12.7965673 10.2554344,12.7634023 10.2179198,12.7326838 C10.007512,12.5097712 9.65927902,12.3912469 9.11830815,12.4176159 C7.82922077,12.4578489 5.46933727,12.713111 2.72098776,11.2734217 L2.72098776,3.46848966 C2.72098776,2.05516927 3.08063824,1.61070325 4.37543436,1.61070325 L17.2741916,1.61070325 Z M7.9906965,11.4628974 C9.37492951,11.4628974 10.4952014,10.413577 10.4952014,9.12014014 C10.4952014,7.82534403 9.37492951,6.77711102 7.9906965,6.77711102 C6.60809455,6.77711102 5.48619164,7.82534403 5.48619164,9.12014014 C5.48619164,10.413577 6.60809455,11.4628974 7.9906965,11.4628974 Z M13.8193179,11.4628974 C15.2035509,11.4628974 16.3238227,10.413577 16.3238227,9.12014014 C16.3238227,7.82534403 15.2019198,6.77711102 13.8193179,6.77711102 C12.4367159,6.77711102 11.314813,7.82534403 11.314813,9.12014014 C11.314813,10.413577 12.4367159,11.4628974 13.8193179,11.4628974 Z" id="path-3"></path>
    </defs>
    <g id="Symbols" stroke="none" stroke-width="1" fill="none" fill-rule="evenodd">
        <g id="Footer" transform="translate(-573.000000, -423.000000)">
            <g id="Social-Icons">
                <g>
                    <g>
                        <g>
                            <g transform="translate(390.000000, 423.000000)">
                                <g id="Slideshare" transform="translate(183.448276, 0.000000)">
                                    <rect id="Rectangle-Copy-5" fill="#002F87" x="0" y="0" width="28" height="28"></rect>
                                    <g id="slideshare-logo" transform="translate(3.652174, 4.260870)">
                                        <g id="Group-3" transform="translate(2.665260, 1.447868)"></g>
                                        <g id="Group-6">
                                            <mask id="mask-2" fill="white">
                                                <use xlink:href="#path-1"></use>
                                            </mask>
                                            <use id="Clip-5" fill="#FFFFFF" xlink:href="#path-1"></use>
                                            <polygon id="Fill-1" fill="#FFFFFF" mask="url(#mask-2)" points="2.69788096 13.4470916 18.9433179 13.4470916 18.9433179 1.6055382 2.69788096 1.6055382"></polygon>
                                            <mask id="mask-4" fill="white">
                                                <use xlink:href="#path-3"></use>
                                            </mask>
                                            <use id="Clip-2" fill="#002F87" xlink:href="#path-3"></use>
                                        </g>
                                    </g>
                                </g>
                            </g>
                        </g>
                    </g>
                </g>
            </g>
        </g>
    </g>
</svg>