<?xml version="1.0" encoding="UTF-8"?>
<svg width="29px" height="28px" viewBox="0 0 29 28" version="1.1" xmlns="http://www.w3.org/2000/svg" xmlns:xlink="http://www.w3.org/1999/xlink">
    <!-- Generator: Sketch 63.1 (92452) - https://sketch.com -->
    <title>Twitter@1,5x</title>
    <desc>Created with Sketch.</desc>
    <g id="Symbols" stroke="none" stroke-width="1" fill="none" fill-rule="evenodd">
        <g id="Footer" transform="translate(-436.000000, -423.000000)">
            <g id="Social-Icons">
                <g>
                    <g>
                        <g>
                            <g transform="translate(390.000000, 423.000000)">
                                <g id="Twitter" transform="translate(46.344828, 0.000000)">
                                    <rect id="Rectangle-Copy-2" fill="#002F87" x="0" y="0" width="28" height="28"></rect>
                                    <path d="M20.0054554,11.0515423 C20.0117986,11.1882746 20.0146178,11.3257117 20.0146178,11.4631487 C20.0146178,15.6673135 16.8148009,20.5149657 10.9635057,20.5149657 C9.16695652,20.5149657 7.49445309,19.9877712 6.08695652,19.0849153 C6.33575286,19.1145172 6.58877803,19.1300229 6.84603204,19.1300229 C8.33599085,19.1300229 9.70824714,18.6211533 10.7964668,17.7676339 C9.40447597,17.7422609 8.22956522,16.8224897 7.82500686,15.5587735 C8.01882838,15.5961281 8.21828833,15.6158627 8.42338673,15.6158627 C8.71376659,15.6158627 8.99498398,15.5770984 9.26140046,15.5045034 C7.80597712,15.2120092 6.71000458,13.9264439 6.71000458,12.3850343 L6.71000458,12.3448604 C7.13852632,12.5830847 7.62977574,12.7261602 8.15133181,12.7430755 C7.29710755,12.1721831 6.73537757,11.1988467 6.73537757,10.0951213 C6.73537757,9.51224714 6.8925492,8.96531808 7.16671854,8.49591762 C8.73561556,10.4200366 11.0797986,11.6865721 13.723524,11.8197803 C13.669254,11.5864897 13.6410618,11.3440366 13.6410618,11.0945355 C13.6410618,9.33745538 15.0654737,7.91304348 16.821849,7.91304348 C17.7373913,7.91304348 18.5641281,8.29998169 19.1441831,8.91809611 C19.8687231,8.77502059 20.5495652,8.51071854 21.1641556,8.1463341 C20.9266362,8.88919908 20.3120458,9.53409611 19.6558719,9.92808238 C20.3212082,9.80685584 21.0224897,9.59189016 21.5926773,9.33886499 C21.16627,9.97671396 20.6270938,10.603286 20.0054554,11.0515423 L20.0054554,11.0515423 Z" id="Path" fill="#FFFFFF"></path>
                                </g>
                            </g>
                        </g>
                    </g>
                </g>
            </g>
        </g>
    </g>
</svg>