<?xml version="1.0" encoding="UTF-8"?>
<svg width="29px" height="28px" viewBox="0 0 29 28" version="1.1" xmlns="http://www.w3.org/2000/svg" xmlns:xlink="http://www.w3.org/1999/xlink">
    <!-- Generator: Sketch 63.1 (92452) - https://sketch.com -->
    <title>Youtube@1,5x</title>
    <desc>Created with Sketch.</desc>
    <defs>
        <polygon id="path-1" points="0.0669290323 7.00073596 0.0669290323 0.08590681 5.31503226 3.53796894"></polygon>
    </defs>
    <g id="Symbols" stroke="none" stroke-width="1" fill="none" fill-rule="evenodd">
        <g id="Footer" transform="translate(-528.000000, -423.000000)">
            <g id="Social-Icons">
                <g>
                    <g>
                        <g>
                            <g transform="translate(390.000000, 423.000000)">
                                <g id="Youtube" transform="translate(138.068966, 0.000000)">
                                    <rect id="Rectangle-Copy-4" fill="#002F87" x="0" y="0" width="28" height="28"></rect>
                                    <path d="M22.7236359,17.2119534 C22.9193666,14.7829534 22.9193666,13.2456457 22.7236359,10.8166457 C22.6299436,9.65114568 21.9342513,8.19864568 20.5229436,8.13968415 C16.5566359,7.87664568 11.8593666,7.80072261 7.82359741,8.13968415 C6.57544356,8.28560722 5.71848202,9.80541491 5.62505895,10.9690303 C5.42932818,13.3977611 5.42932818,14.7829534 5.62505895,17.2119534 C5.71848202,18.3666841 6.55794356,19.9042611 7.82359741,20.0671457 C11.9094436,20.3304534 16.5827513,20.3716457 20.5229436,20.0671457 C21.7471359,19.8541841 22.6299436,18.3755688 22.7236359,17.2119534 Z" id="Path" fill="#FFFFFF"></path>
                                    <g id="Group-6" transform="translate(11.565217, 10.347826)">
                                        <mask id="mask-2" fill="white">
                                            <use xlink:href="#path-1"></use>
                                        </mask>
                                        <g id="Clip-5"></g>
                                        <polygon id="Fill-4" fill="#002F87" mask="url(#mask-2)" points="0.0487741935 7.02241338 5.3163871 7.02241338 5.3163871 0.0856391876 0.0487741935 0.0856391876"></polygon>
                                    </g>
                                </g>
                            </g>
                        </g>
                    </g>
                </g>
            </g>
        </g>
    </g>
</svg>