<svg width="46" height="46" viewBox="0 0 46 46" fill="none" xmlns="http://www.w3.org/2000/svg">
<circle cx="23" cy="23" r="23" fill="#002F87"/>
<path d="M31.3466 33H15.7528V29.9062L23.1122 22.0625C24.1226 20.9583 24.8674 19.9948 25.3466 19.1719C25.8361 18.349 26.0809 17.5677 26.0809 16.8281C26.0809 15.8177 25.8257 15.026 25.3153 14.4531C24.8049 13.8698 24.0757 13.5781 23.1278 13.5781C22.107 13.5781 21.2997 13.9323 20.7059 14.6406C20.1226 15.3385 19.8309 16.2604 19.8309 17.4062H15.2997C15.2997 16.0208 15.6278 14.7552 16.2841 13.6094C16.9507 12.4635 17.8882 11.5677 19.0966 10.9219C20.3049 10.2656 21.6747 9.9375 23.2059 9.9375C25.5497 9.9375 27.3674 10.5 28.6591 11.625C29.9611 12.75 30.6122 14.3385 30.6122 16.3906C30.6122 17.5156 30.3205 18.6615 29.7372 19.8281C29.1538 20.9948 28.1538 22.3542 26.7372 23.9062L21.5653 29.3594H31.3466V33Z" fill="white"/>
</svg>
