<svg width="131" height="26" viewBox="0 0 131 26" fill="none" xmlns="http://www.w3.org/2000/svg">
<path d="M4.24322 17.6838C19.8208 17.6838 19.7765 5.65819 9.34448 5.65819C3.52602 5.6556 0 10.6512 0 15.6441C0 20.6449 3.21045 25.6327 8.87504 25.6327C11.7517 25.6327 14.9778 24.4369 16.6208 23.166L15.2542 20.9167C10.1034 24.6439 3.90418 21.6621 4.22497 17.7174L4.24322 17.6838ZM9.72524 8.75906C15.6871 8.75906 13.8694 15.2585 4.21975 14.7667C4.21975 9.93936 8.05091 8.75906 9.72524 8.75906Z" fill="white"/>
<path d="M29.1023 5.65559C25.811 5.65559 23.6542 7.29145 22.9161 7.94889L22.4076 6.4994C22.3554 6.35187 22.2146 6.25351 22.0581 6.25351H18.7329L19.5883 9.53039V25.2651C19.5883 25.467 19.7526 25.6327 19.9587 25.6327H23.8003V10.7547C25.1903 8.85483 27.2037 8.72282 28.2286 8.72282C29.9395 8.72282 31.8825 10.3431 31.8825 13.4285V25.2677C31.8825 25.4696 32.0468 25.6353 32.2528 25.6353H36.0787V12.7762C36.0787 8.91436 34.2531 5.65559 29.1023 5.65559Z" fill="white"/>
<path d="M45.1468 8.41481H49.9768C50.1594 8.41481 50.3133 8.2828 50.342 8.10421L50.7201 5.65819H45.1442V0.0440063L42.278 1.02241C42.1633 1.06383 42.0772 1.1596 42.0459 1.27607L40.9297 5.65819H38.1704V8.41481H40.9297V20.2929C40.9297 26.9631 48.9336 25.9226 50.7201 24.5352V22.3765H47.5331C46.104 22.3765 45.1468 21.7216 45.1468 20.0625V8.41481Z" fill="white"/>
<path d="M68.6973 7.36133C66.058 6.22504 63.8881 5.65559 61.1288 5.65559C58.3696 5.65559 51.7661 7.37169 51.7661 15.6441C51.7661 23.9166 55.9233 25.6327 59.731 25.6327C61.7287 25.6327 63.9377 24.2117 64.9235 23.1737C65.4034 24.3255 66.0736 25.6327 68.2695 25.6327C69.9413 25.6327 71.0679 24.8406 71.0679 24.8406L70.8124 22.5266C69.7848 22.5266 68.6894 21.6983 68.6894 19.3222L68.6973 7.36133ZM60.1378 22.4127C54.6193 22.4127 53.8629 8.64517 61.2853 8.64517C63.656 8.64517 64.5114 9.33885 64.5114 9.33885V19.0504C63.1657 22.04 61.3922 22.4127 60.1378 22.4127Z" fill="white"/>
<path d="M109.557 0L105.643 0.921462C105.478 0.962876 105.363 1.11041 105.363 1.27866V6.04645C104.333 5.7902 103.274 5.65819 101.984 5.65819C99.2242 5.65819 92.6182 7.37428 92.6182 15.6467C92.6182 23.9192 96.7753 25.6353 100.583 25.6353C103.001 25.6353 104.79 24.2143 105.776 23.1763C106.255 24.3281 107.27 25.6353 109.163 25.6353C110.835 25.6353 112.053 24.8432 112.053 24.8432V22.5292C110.053 22.5292 109.557 21.7579 109.557 19.2886V0ZM100.992 22.4127C95.487 22.4127 95.054 8.64517 102.137 8.64517C104.508 8.64517 105.363 9.33886 105.363 9.33886V16.4362V19.0504C104.018 22.04 102.244 22.4127 100.992 22.4127Z" fill="white"/>
<path d="M113.099 15.7295C113.099 20.5698 115.401 25.6689 122.094 25.6689C129.479 25.6689 131 20.5284 131 15.7295C131 10.9255 129.435 5.65559 122.094 5.65559C115.446 5.65559 113.099 10.8893 113.099 15.7295ZM117.329 15.3154C117.329 10.6305 119.209 8.70988 122.094 8.70988C124.636 8.70988 126.778 10.4648 126.778 15.3698C126.778 20.4404 124.717 22.7673 122.094 22.7673C118.987 22.7699 117.329 20.078 117.329 15.3154Z" fill="white"/>
<path d="M83.5291 5.65559C80.2378 5.65559 78.081 7.29145 77.3429 7.94889L76.8343 6.4994C76.7822 6.35187 76.6414 6.25351 76.4849 6.25351H73.1597L74.0151 9.53039V25.2651C74.0151 25.467 74.1794 25.6327 74.3854 25.6327H78.227V10.7547C79.6171 8.85483 81.6305 8.72282 82.6554 8.72282C84.3663 8.72282 86.3092 10.3431 86.3092 13.4285V25.2677C86.3092 25.4696 86.4735 25.6353 86.6796 25.6353H90.5055V12.7762C90.5029 8.91436 88.6773 5.65559 83.5291 5.65559Z" fill="white"/>
</svg>
