<svg width="46" height="46" viewBox="0 0 46 46" fill="none" xmlns="http://www.w3.org/2000/svg">
<circle cx="23" cy="23" r="23" fill="#002F87"/>
<path d="M20.3466 21.3604H22.7528C23.8986 21.3604 24.7476 21.0739 25.2997 20.501C25.8518 19.9281 26.1278 19.1676 26.1278 18.2197C26.1278 17.3031 25.8518 16.5895 25.2997 16.0791C24.758 15.5687 24.008 15.3135 23.0497 15.3135C22.1851 15.3135 21.4611 15.5531 20.8778 16.0322C20.2945 16.501 20.0028 17.1156 20.0028 17.876H15.4872C15.4872 16.6885 15.8049 15.626 16.4403 14.6885C17.0861 13.7406 17.982 13.001 19.1278 12.4697C20.2841 11.9385 21.5549 11.6729 22.9403 11.6729C25.3466 11.6729 27.232 12.251 28.5966 13.4072C29.9611 14.5531 30.6434 16.1364 30.6434 18.1572C30.6434 19.1989 30.3257 20.1572 29.6903 21.0322C29.0549 21.9072 28.2216 22.5791 27.1903 23.0479C28.4716 23.5062 29.4247 24.1937 30.0497 25.1104C30.6851 26.027 31.0028 27.1104 31.0028 28.3604C31.0028 30.3812 30.2632 32.001 28.7841 33.2197C27.3153 34.4385 25.3674 35.0479 22.9403 35.0479C20.6695 35.0479 18.8101 34.4489 17.3622 33.251C15.9247 32.0531 15.2059 30.4697 15.2059 28.501H19.7216C19.7216 29.3551 20.0393 30.0531 20.6747 30.5947C21.3205 31.1364 22.1122 31.4072 23.0497 31.4072C24.1226 31.4072 24.9611 31.126 25.5653 30.5635C26.1799 29.9906 26.4872 29.2354 26.4872 28.2979C26.4872 26.027 25.2372 24.8916 22.7372 24.8916H20.3466V21.3604Z" fill="white"/>
</svg>
