<?xml version="1.0" encoding="UTF-8"?>
<svg width="146px" height="30px" viewBox="0 0 146 30" version="1.1" xmlns="http://www.w3.org/2000/svg" xmlns:xlink="http://www.w3.org/1999/xlink">
    <!-- Generator: Sketch 42 (36781) - http://www.bohemiancoding.com/sketch -->
    <title>Logo</title>
    <desc>Created with Sketch.</desc>
    <defs></defs>
    <g id="Design" stroke="none" stroke-width="1" fill="none" fill-rule="evenodd" opacity="1">
        <g id="Home-_V01" transform="translate(-567.000000, -5945.000000)" fill="#ffffff">
            <g id="Group" transform="translate(-80.000000, 5878.000000)">
                <g id="Logo" transform="translate(647.000000, 67.000000)">
                    <path d="M10.7919608,10.0012093 C17.4072753,10.0012093 15.3908735,17.4246745 4.68313445,16.8615966 C4.68313445,11.3493448 8.93503039,10.0012093 10.7919608,10.0012093 L10.7919608,10.0012093 Z M4.7103401,20.1927714 C21.9969265,20.1927714 21.9488825,6.45958232 10.370852,6.45958232 C3.91269357,6.45958232 0,12.1618914 0,17.8653827 C0,23.5747857 3.56249317,29.2714787 9.84960334,29.2714787 C13.0413472,29.2714787 16.6212056,27.905904 18.4442737,26.4540202 L16.9282822,23.884848 C11.2124907,28.141776 4.33293405,24.7375933 4.68892289,20.2329701 L4.7103401,20.1927714 Z" id="Fill-1"></path>
                    <path d="M32.2978542,6.45964143 C28.6459297,6.45964143 26.2506747,8.32622248 25.4342158,9.07787975 L24.8692644,7.42352438 C24.8116695,7.25533996 24.6562499,7.1424288 24.4817286,7.1424288 L20.7904427,7.1424288 L21.7394569,10.885345 L21.7394569,28.8524069 C21.7394569,29.0838452 21.9232397,29.2715379 22.149857,29.2715379 L26.4121721,29.2715379 L26.4121721,12.2819555 C27.9553693,10.1127016 30.188548,9.96077406 31.3274229,9.96077406 C33.2251617,9.96077406 35.3810649,11.809916 35.3810649,15.3335126 L35.3810649,28.8524069 C35.3810649,29.0838452 35.5648477,29.2715379 35.791465,29.2715379 L40.0378619,29.2715379 L40.0378619,14.589836 C40.0378619,10.1809804 38.0113304,6.45964143 32.2978542,6.45964143" id="Fill-3"></path>
                    <path d="M50.100827,9.60856219 L55.4620768,9.60856219 C55.6643827,9.60856219 55.8365886,9.45781693 55.8675568,9.25327629 L56.2883761,6.45975966 L50.100827,6.45975966 L50.100827,0.0492434526 L46.9189236,1.16564514 C46.791578,1.21323335 46.6954899,1.3220064 46.6622064,1.45619924 L45.4226128,6.45975966 L42.3605299,6.45975966 L42.3605299,9.60856219 L45.4226128,9.60856219 L45.4226128,23.1717933 C45.4226128,30.7900451 54.3049684,29.6015222 56.2883761,28.0157411 L56.2883761,25.549726 L52.7530886,25.549726 C51.167057,25.549726 50.1051684,24.8013201 50.1051684,22.9072502 L50.100827,9.60856219 Z" id="Fill-5"></path>
                    <path d="M66.7376325,25.5938264 C60.6146245,25.5938264 59.7738541,9.87286888 68.0096414,9.87286888 C70.6404857,9.87286888 71.588921,10.6656116 71.588921,10.6656116 L71.588921,21.7542558 C70.0966621,25.1684883 68.1297515,25.5938264 66.7376325,25.5938264 L66.7376325,25.5938264 Z M76.2358778,8.40768404 C73.3057713,7.10979688 70.8989394,6.45981878 67.8368566,6.45981878 C64.7762209,6.45981878 57.4454556,8.42068952 57.4454556,17.8656192 C57.4454556,27.31114 62.0597077,29.2714196 66.2849768,29.2714196 C68.5007902,29.2714196 70.9533507,27.6483956 72.0476546,26.4622373 C72.5813485,27.7784504 73.3245837,29.2714196 75.7603577,29.2714196 C77.6141045,29.2714196 78.8649856,28.3681304 78.8649856,28.3681304 L78.5822205,25.7262457 C77.4430562,25.7262457 76.2271951,24.7795064 76.2271951,22.0663872 L76.2358778,8.40768404 Z" id="Fill-7"></path>
                    <path d="M112.074316,25.5938264 C105.963174,25.5938264 105.483892,9.87286888 113.345746,9.87286888 C115.97659,9.87286888 116.925026,10.6656116 116.925026,10.6656116 L116.925026,18.7677261 L116.925026,21.7542558 C115.432767,25.1684883 113.465856,25.5938264 112.074316,25.5938264 L112.074316,25.5938264 Z M121.580086,-5.91157896e-05 L117.235575,1.05338425 C117.053239,1.10008573 116.925026,1.26767899 116.925026,1.45980531 L116.925026,6.9031872 C115.780652,6.61145078 114.605599,6.45981878 113.17354,6.45981878 C110.112325,6.45981878 102.78156,8.42068952 102.78156,17.8656192 C102.78156,27.31114 107.395812,29.2714196 111.621081,29.2714196 C114.303732,29.2714196 116.289455,27.6483956 117.38347,26.4622373 C117.917453,27.7784504 119.043014,29.2714196 121.14277,29.2714196 C122.996806,29.2714196 124.350721,28.3681304 124.350721,28.3681304 L124.350721,25.7262457 C122.131724,25.7262457 121.580086,24.8451249 121.580086,22.0267796 L121.580086,-5.91157896e-05 Z" id="Fill-9"></path>
                    <path d="M135.493577,29.3115001 C128.067303,29.3115001 125.511997,23.4906639 125.511997,17.9624509 C125.511997,12.4342378 128.116215,6.45970055 135.493577,6.45970055 C143.640801,6.45970055 145.377043,12.4753233 145.377043,17.9624509 C145.377043,23.4424845 143.690003,29.3115001 135.493577,29.3115001 Z M130.205262,17.4904113 C130.205262,22.9281772 132.046563,26.0013115 135.493577,26.0013115 C138.404582,26.0013115 140.691882,23.3419877 140.691882,17.553074 C140.691882,11.9527397 138.31515,9.94753213 135.493577,9.94753213 C132.292282,9.94753213 130.205262,12.1410235 130.205262,17.4904113 Z" id="Fill-11"></path>
                    <path d="M92.6949782,6.45964143 C89.0430537,6.45964143 86.6477988,8.32622248 85.8313398,9.07787975 L85.2663884,7.42352438 C85.2087935,7.25533996 85.053374,7.1424288 84.8788526,7.1424288 L81.1875667,7.1424288 L82.1365809,10.885345 L82.1365809,28.8524069 C82.1365809,29.0838452 82.3203637,29.2715379 82.546981,29.2715379 L86.8092961,29.2715379 L86.8092961,12.2819555 C88.3524933,10.1127016 90.585672,9.96077406 91.7245469,9.96077406 C93.6219963,9.96077406 95.7781889,11.809916 95.7781889,15.3335126 L95.7781889,28.8524069 C95.7781889,29.0838452 95.9619717,29.2715379 96.188589,29.2715379 L100.434986,29.2715379 L100.434986,14.589836 C100.434986,10.1809804 98.4084544,6.45964143 92.6949782,6.45964143" id="Fill-14"></path>
                </g>
            </g>
        </g>
    </g>
</svg>